<svg width="49" height="49" viewBox="0 0 49 49" fill="none" xmlns="http://www.w3.org/2000/svg">
<path d="M22.5788 3.62276C23.6472 2.57963 25.3528 2.57963 26.4212 3.62276L27.6991 4.87048C28.9456 6.08754 30.7147 6.60699 32.4213 6.25705L34.1709 5.89829C35.6336 5.59837 37.0685 6.52046 37.4033 7.97561L37.8037 9.71614C38.1944 11.4139 39.4018 12.8073 41.0267 13.4356L42.6925 14.0797C44.0852 14.6182 44.7937 16.1697 44.2887 17.5748L43.6846 19.2556C43.0953 20.895 43.3577 22.72 44.385 24.1271L45.4381 25.5695C46.3186 26.7755 46.0759 28.4637 44.8913 29.3727L43.4744 30.4601C42.0924 31.5207 41.3265 33.1978 41.43 34.9369L41.5361 36.7198C41.6248 38.2103 40.5079 39.4993 39.0199 39.6236L37.2401 39.7723C35.504 39.9174 33.9529 40.9142 33.0998 42.4331L32.2251 43.9903C31.4939 45.2922 29.8574 45.7727 28.5385 45.0728L26.9608 44.2357C25.4219 43.4191 23.5781 43.4191 22.0392 44.2357L20.4615 45.0728C19.1426 45.7727 17.5061 45.2922 16.7749 43.9903L15.9002 42.4331C15.0471 40.9142 13.496 39.9174 11.7599 39.7723L9.98013 39.6236C8.49214 39.4993 7.37524 38.2103 7.46395 36.7198L7.57005 34.9369C7.67355 33.1978 6.90763 31.5207 5.52556 30.4601L4.10867 29.3727C2.92411 28.4637 2.68139 26.7755 3.56185 25.5695L4.61501 24.1271C5.64228 22.72 5.90467 20.895 5.31542 19.2556L4.71132 17.5748C4.20627 16.1697 4.91479 14.6182 6.30747 14.0797L7.9733 13.4356C9.5982 12.8073 10.8056 11.4139 11.1962 9.71615L11.5967 7.9756C11.9316 6.52046 13.3664 5.59837 14.8291 5.89829L16.5787 6.25705C18.2853 6.60699 20.0544 6.08754 21.3009 4.87048L22.5788 3.62276Z" stroke="#22223F" stroke-width="2.5"/>
<path d="M17 27.2858L21.0112 30.4118C21.4333 30.7408 22.0395 30.6792 22.3868 30.272L32 19" stroke="#1BC0F5" stroke-width="2.5" stroke-linecap="round"/>
</svg>
