<svg width="48" height="48" viewBox="0 0 48 48" fill="none" xmlns="http://www.w3.org/2000/svg">
<g clip-path="url(#clip0_34_1552)">
<path d="M4.05484 48C1.81936 48 0 46.1733 0 43.9287V4.07126C0 1.82672 1.81936 0 4.05484 0H43.9355C46.171 0 47.9903 1.82672 47.9903 4.07126V43.9287C47.9903 46.1733 46.171 48 43.9355 48H4.05484ZM2.44839 43.9287C2.44839 44.8227 3.17419 45.5514 4.06452 45.5514H43.9452C44.8355 45.5514 45.5613 44.8227 45.5613 43.9287V13.8462H2.44839V43.9287ZM4.05484 2.4583C3.16452 2.4583 2.43871 3.18704 2.43871 4.08097V11.3879H45.5419V4.07126C45.5419 3.17733 44.8161 2.44858 43.9258 2.44858H4.05484V2.4583Z" fill="#22223F"/>
<path d="M19.7419 40.8874C19.5774 40.8874 19.4129 40.8485 19.2581 40.7902C18.6387 40.5182 18.3484 39.7992 18.6097 39.1773L27.1161 19.2485C27.3097 18.7919 27.7549 18.5004 28.2387 18.5004C28.4032 18.5004 28.5678 18.5392 28.7226 18.5975C29.342 18.8696 29.6323 19.5886 29.3613 20.2105L20.8549 40.1392C20.6807 40.5959 20.2355 40.8874 19.7419 40.8874Z" fill="#1BC0F5"/>
<path d="M15.4935 36.6219C15.2129 36.6219 14.9516 36.5247 14.729 36.3498L7.64515 30.6559C7.35482 30.4227 7.19031 30.0729 7.19031 29.6939C7.19031 29.315 7.35482 28.9652 7.64515 28.732L14.729 23.0381C14.9516 22.8632 15.2129 22.766 15.4935 22.766C15.871 22.766 16.2193 22.9312 16.4516 23.2227C16.6548 23.4753 16.7516 23.796 16.7129 24.1263C16.6742 24.4567 16.5193 24.7482 16.258 24.9522L10.3645 29.6842L16.258 34.4162C16.5097 34.6202 16.6742 34.9117 16.7129 35.2421C16.7516 35.5725 16.6548 35.8931 16.4516 36.1457C16.2193 36.447 15.871 36.6219 15.4935 36.6219Z" fill="#1BC0F5"/>
<path d="M32.5064 36.6218C32.129 36.6218 31.7806 36.4567 31.5484 36.1652C31.3451 35.9125 31.2484 35.5919 31.2871 35.2615C31.3258 34.9311 31.4806 34.6396 31.7419 34.4356L37.6355 29.7036L31.7419 24.9716C31.4903 24.7676 31.3258 24.4761 31.2871 24.1457C31.2484 23.8154 31.3451 23.4947 31.5484 23.2421C31.7806 22.9506 32.129 22.7854 32.5064 22.7854C32.7871 22.7854 33.0484 22.8826 33.2709 23.0575L40.3548 28.7514C40.6451 28.9846 40.8096 29.3344 40.8096 29.7133C40.8096 30.0923 40.6451 30.4226 40.3548 30.6558L33.2709 36.3498C33.0484 36.5247 32.7871 36.6218 32.5064 36.6218Z" fill="#1BC0F5"/>
<path d="M6.98705 8.14255C7.66049 8.14255 8.20641 7.59442 8.20641 6.91826C8.20641 6.2421 7.66049 5.69397 6.98705 5.69397C6.31362 5.69397 5.7677 6.2421 5.7677 6.91826C5.7677 7.59442 6.31362 8.14255 6.98705 8.14255Z" fill="#1BC0F5"/>
<path d="M12.6581 8.14255C13.3315 8.14255 13.8774 7.59442 13.8774 6.91826C13.8774 6.2421 13.3315 5.69397 12.6581 5.69397C11.9846 5.69397 11.4387 6.2421 11.4387 6.91826C11.4387 7.59442 11.9846 8.14255 12.6581 8.14255Z" fill="#1BC0F5"/>
<path d="M18.329 8.14255C19.0024 8.14255 19.5483 7.59442 19.5483 6.91826C19.5483 6.2421 19.0024 5.69397 18.329 5.69397C17.6555 5.69397 17.1096 6.2421 17.1096 6.91826C17.1096 7.59442 17.6555 8.14255 18.329 8.14255Z" fill="#1BC0F5"/>
<path d="M32.5065 8.1522C31.829 8.1522 31.2871 7.59835 31.2871 6.9279C31.2871 6.25746 31.8387 5.70361 32.5065 5.70361H41.0129C41.6903 5.70361 42.2323 6.25746 42.2323 6.9279C42.2323 7.59835 41.6807 8.1522 41.0129 8.1522H32.5065Z" fill="#1BC0F5"/>
</g>
<defs>
<clipPath id="clip0_34_1552">
<rect width="48" height="48" fill="white"/>
</clipPath>
</defs>
</svg>
