<svg width="47" height="51" viewBox="0 0 47 51" fill="none" xmlns="http://www.w3.org/2000/svg">
<path d="M31.9573 37.2897L36.1642 28.2846C38.2566 23.8059 37.921 18.6424 35.2664 14.4723C32.6117 10.3021 28.0755 7.8125 23.1322 7.8125C18.1888 7.8125 13.6527 10.3021 10.9981 14.4723C8.34342 18.6424 8.00787 23.806 10.1003 28.2846L14.3072 37.2897C13.72 37.8259 13.3509 38.5972 13.3509 39.4531C13.3509 40.2029 13.6343 40.8875 14.0994 41.4062C13.6344 41.925 13.3509 42.6096 13.3509 43.3594C13.3509 44.9748 14.6652 46.2891 16.2806 46.2891H18.5478C18.9984 48.4065 20.8824 50 23.1323 50C25.3822 50 27.2662 48.4065 27.7168 46.2891H29.9839C31.5994 46.2891 32.9136 44.9748 32.9136 43.3594C32.9136 42.6096 32.6302 41.925 32.1652 41.4062C32.6301 40.8875 32.9136 40.2029 32.9136 39.4531C32.9135 38.5972 32.5445 37.8259 31.9573 37.2897ZM16.1048 36.5234L11.8698 27.458C10.0615 23.5874 10.3516 19.125 12.6457 15.5211C14.9398 11.9172 18.86 9.76562 23.1322 9.76562C27.4044 9.76562 31.3246 11.9172 33.6187 15.5211C35.9128 19.125 36.2029 23.5874 34.3947 27.4579L30.1595 36.5234H26.4525V28.3203H27.8197C29.6505 28.3203 31.14 26.8309 31.14 25C31.14 23.1691 29.6505 21.6797 27.8197 21.6797C25.9888 21.6797 24.4994 23.1691 24.4994 25V26.3672H21.765V25C21.765 23.1691 20.2755 21.6797 18.4447 21.6797C16.6138 21.6797 15.1244 23.1691 15.1244 25C15.1244 26.8309 16.6138 28.3203 18.4447 28.3203H19.8119V36.5234H16.1048ZM19.8119 26.3672H18.4447C17.6908 26.3672 17.0775 25.7539 17.0775 25C17.0775 24.2461 17.6908 23.6328 18.4447 23.6328C19.1986 23.6328 19.8119 24.2461 19.8119 25V26.3672ZM21.765 28.3203H24.4994V36.5234H21.765V28.3203ZM26.4525 26.3672V25C26.4525 24.2461 27.0658 23.6328 27.8197 23.6328C28.5736 23.6328 29.1869 24.2461 29.1869 25C29.1869 25.7539 28.5736 26.3672 27.8197 26.3672H26.4525ZM23.1322 48.0469C21.9684 48.0469 20.9728 47.3158 20.5788 46.2891H25.6856C25.2916 47.3158 24.296 48.0469 23.1322 48.0469ZM29.9838 44.3359H16.2805C15.7421 44.3359 15.304 43.8979 15.304 43.3594C15.304 42.8209 15.7421 42.3828 16.2805 42.3828H18.7377C19.2769 42.3828 19.7142 41.9456 19.7142 41.4062C19.7142 40.8669 19.2769 40.4297 18.7377 40.4297H16.2805C15.7421 40.4297 15.304 39.9916 15.304 39.4531C15.304 38.9146 15.7421 38.4766 16.2805 38.4766H29.9838C30.5223 38.4766 30.9604 38.9146 30.9604 39.4531C30.9604 39.9916 30.5223 40.4297 29.9838 40.4297H27.5267C26.9875 40.4297 26.5502 40.8669 26.5502 41.4062C26.5502 41.9456 26.9875 42.3828 27.5267 42.3828H29.9838C30.5223 42.3828 30.9604 42.8209 30.9604 43.3594C30.9604 43.8979 30.5223 44.3359 29.9838 44.3359Z" fill="#22223F"/>
<path d="M23.1321 5.85938C23.6713 5.85938 24.1086 5.42217 24.1086 4.88281V0.976562C24.1086 0.437207 23.6713 0 23.1321 0C22.5928 0 22.1555 0.437207 22.1555 0.976562V4.88281C22.1555 5.42217 22.5928 5.85938 23.1321 5.85938Z" fill="#22223F"/>
<path d="M9.53223 10.9309C9.72295 11.1216 9.97285 11.2169 10.2228 11.2169C10.4727 11.2169 10.7226 11.1216 10.9133 10.9309C11.2946 10.5495 11.2946 9.93115 10.9133 9.54971L8.15117 6.7876C7.76973 6.40625 7.15156 6.40625 6.77002 6.7876C6.38867 7.16895 6.38867 7.78731 6.77002 8.16875L9.53223 10.9309Z" fill="#22223F"/>
<path d="M4.88281 22.1804H0.976562C0.437305 22.1804 0 22.6176 0 23.157C0 23.6963 0.437305 24.1335 0.976562 24.1335H4.88281C5.42207 24.1335 5.85938 23.6963 5.85938 23.157C5.85938 22.6176 5.42207 22.1804 4.88281 22.1804Z" fill="#22223F"/>
<path d="M9.54971 35.3758L6.7876 38.1379C6.40625 38.5193 6.40625 39.1376 6.7876 39.5191C6.97832 39.7098 7.22822 39.8051 7.47812 39.8051C7.72803 39.8051 7.97793 39.7098 8.16865 39.5191L10.9308 36.757C11.3121 36.3756 11.3121 35.7573 10.9308 35.3758C10.5493 34.9944 9.93115 34.9944 9.54971 35.3758V35.3758Z" fill="#22223F"/>
<path d="M38.1129 6.78759L35.3508 9.54979C34.9695 9.93114 34.9695 10.5495 35.3508 10.9309C35.5416 11.1217 35.7915 11.217 36.0414 11.217C36.2913 11.217 36.5412 11.1217 36.7319 10.9309L39.494 8.16884C39.8753 7.78749 39.8753 7.16913 39.494 6.78768C39.1126 6.40624 38.4945 6.40624 38.1129 6.78759V6.78759Z" fill="#22223F"/>
<path d="M45.2877 22.1804H41.3815C40.8422 22.1804 40.4049 22.6176 40.4049 23.157C40.4049 23.6963 40.8422 24.1335 41.3815 24.1335H45.2877C45.827 24.1335 46.2643 23.6963 46.2643 23.157C46.2643 22.6176 45.8271 22.1804 45.2877 22.1804Z" fill="#22223F"/>
<path d="M36.7145 35.3757C36.3331 34.9944 35.7149 34.9944 35.3334 35.3757C34.952 35.7571 34.952 36.3754 35.3334 36.7569L38.0955 39.519C38.2862 39.7097 38.5361 39.805 38.786 39.805C39.0359 39.805 39.2858 39.7097 39.4765 39.519C39.8579 39.1376 39.8579 38.5193 39.4765 38.1378L36.7145 35.3757Z" fill="#22223F"/>
<path d="M23.1321 40.4297C22.8752 40.4297 22.6233 40.5342 22.4416 40.7158C22.26 40.8975 22.1555 41.1494 22.1555 41.4062C22.1555 41.6631 22.2599 41.915 22.4416 42.0967C22.6234 42.2783 22.8752 42.3828 23.1321 42.3828C23.3889 42.3828 23.6409 42.2783 23.8224 42.0967C24.0041 41.915 24.1086 41.6631 24.1086 41.4062C24.1086 41.1494 24.0042 40.8975 23.8224 40.7158C23.6409 40.5342 23.3889 40.4297 23.1321 40.4297Z" fill="#22223F"/>
<path d="M23.8122 40.74C23.6322 40.56 23.3722 40.45 23.1222 40.45C22.8622 40.45 22.6122 40.56 22.4322 40.74C22.2422 40.92 22.1422 41.17 22.1422 41.43C22.1422 41.69 22.2422 41.94 22.4322 42.12C22.6122 42.3 22.8622 42.41 23.1222 42.41C23.3722 42.41 23.6322 42.3 23.8122 42.12C23.9922 41.94 24.0922 41.69 24.0922 41.43C24.0922 41.17 23.9922 40.92 23.8122 40.74ZM23.8122 40.74C23.6322 40.56 23.3722 40.45 23.1222 40.45C22.8622 40.45 22.6122 40.56 22.4322 40.74C22.2422 40.92 22.1422 41.17 22.1422 41.43C22.1422 41.69 22.2422 41.94 22.4322 42.12C22.6122 42.3 22.8622 42.41 23.1222 42.41C23.3722 42.41 23.6322 42.3 23.8122 42.12C23.9922 41.94 24.0922 41.69 24.0922 41.43C24.0922 41.17 23.9922 40.92 23.8122 40.74ZM23.8122 40.74C23.6322 40.56 23.3722 40.45 23.1222 40.45C22.8622 40.45 22.6122 40.56 22.4322 40.74C22.2422 40.92 22.1422 41.17 22.1422 41.43C22.1422 41.69 22.2422 41.94 22.4322 42.12C22.6122 42.3 22.8622 42.41 23.1222 42.41C23.3722 42.41 23.6322 42.3 23.8122 42.12C23.9922 41.94 24.0922 41.69 24.0922 41.43C24.0922 41.17 23.9922 40.92 23.8122 40.74ZM23.8122 40.74C23.6322 40.56 23.3722 40.45 23.1222 40.45C22.8622 40.45 22.6122 40.56 22.4322 40.74C22.2422 40.92 22.1422 41.17 22.1422 41.43C22.1422 41.69 22.2422 41.94 22.4322 42.12C22.6122 42.3 22.8622 42.41 23.1222 42.41C23.3722 42.41 23.6322 42.3 23.8122 42.12C23.9922 41.94 24.0922 41.69 24.0922 41.43C24.0922 41.17 23.9922 40.92 23.8122 40.74ZM32.9022 39.48C32.9022 38.87 32.7122 38.3 32.3922 37.83C32.3622 37.79 32.3422 37.77 32.3322 37.74C32.2522 37.58 32.1122 37.43 31.9422 37.31C31.2722 36.79 30.1422 36.55 30.1422 36.55H26.4422V28.34H27.8022C29.6322 28.34 31.1222 26.86 31.1222 25.02C31.1222 23.19 29.6322 21.7 27.8022 21.7C25.9722 21.7 24.4822 23.19 24.4822 25.02V26.39H21.7522V25.02C21.7522 23.19 20.2622 21.7 18.4322 21.7C16.6022 21.7 15.1122 23.19 15.1122 25.02C15.1122 26.86 16.6022 28.34 18.4322 28.34H19.8022V36.55H16.2922C15.0522 36.55 14.2922 37.31 14.2922 37.31C13.7022 37.85 13.3322 38.62 13.3322 39.48C13.3322 40.23 13.6222 40.91 14.0822 41.43C13.6222 41.95 13.3322 42.63 13.3322 43.38C13.3322 45 14.6522 46.31 16.2622 46.31H18.5322C18.9822 48.43 20.8722 50.02 23.1222 50.02C25.3722 50.02 27.2522 48.43 27.7022 46.31H29.9722C31.5822 46.31 32.9022 45 32.9022 43.38C32.9022 42.63 32.6122 41.95 32.1522 41.43C32.6122 40.91 32.9022 40.23 32.9022 39.48ZM26.4422 25.02C26.4422 24.27 27.0522 23.66 27.8022 23.66C28.5622 23.66 29.1722 24.27 29.1722 25.02C29.1722 25.78 28.5622 26.39 27.8022 26.39H26.4422V25.02ZM21.7522 28.34H24.4822V36.55H21.7522V28.34ZM18.4322 26.39C17.6722 26.39 17.0622 25.78 17.0622 25.02C17.0622 24.27 17.6722 23.66 18.4322 23.66C19.1822 23.66 19.8022 24.27 19.8022 25.02V26.39H18.4322ZM23.1222 48.07C21.9522 48.07 20.9622 47.34 20.5622 46.31H25.6722C25.2822 47.34 24.2822 48.07 23.1222 48.07ZM27.5122 42.41H29.9722C30.5122 42.41 30.9422 42.85 30.9422 43.38C30.9422 43.92 30.5122 44.36 29.9722 44.36H16.2622C15.7322 44.36 15.2922 43.92 15.2922 43.38C15.2922 42.85 15.7322 42.41 16.2622 42.41H18.7222C19.2622 42.41 19.7022 41.97 19.7022 41.43C19.7022 40.89 19.2622 40.45 18.7222 40.45H16.2622C15.7322 40.45 15.2922 40.02 15.2922 39.48C15.2922 38.94 15.7322 38.5 16.2622 38.5H29.9722C30.5122 38.5 30.9422 38.94 30.9422 39.48C30.9422 40.02 30.5122 40.45 29.9722 40.45H27.5122C26.9722 40.45 26.5322 40.89 26.5322 41.43C26.5322 41.97 26.9722 42.41 27.5122 42.41ZM23.1222 40.45C22.8622 40.45 22.6122 40.56 22.4322 40.74C22.2422 40.92 22.1422 41.17 22.1422 41.43C22.1422 41.69 22.2422 41.94 22.4322 42.12C22.6122 42.3 22.8622 42.41 23.1222 42.41C23.3722 42.41 23.6322 42.3 23.8122 42.12C23.9922 41.94 24.0922 41.69 24.0922 41.43C24.0922 41.17 23.9922 40.92 23.8122 40.74C23.6322 40.56 23.3722 40.45 23.1222 40.45ZM23.8122 40.74C23.6322 40.56 23.3722 40.45 23.1222 40.45C22.8622 40.45 22.6122 40.56 22.4322 40.74C22.2422 40.92 22.1422 41.17 22.1422 41.43C22.1422 41.69 22.2422 41.94 22.4322 42.12C22.6122 42.3 22.8622 42.41 23.1222 42.41C23.3722 42.41 23.6322 42.3 23.8122 42.12C23.9922 41.94 24.0922 41.69 24.0922 41.43C24.0922 41.17 23.9922 40.92 23.8122 40.74ZM23.8122 40.74C23.6322 40.56 23.3722 40.45 23.1222 40.45C22.8622 40.45 22.6122 40.56 22.4322 40.74C22.2422 40.92 22.1422 41.17 22.1422 41.43C22.1422 41.69 22.2422 41.94 22.4322 42.12C22.6122 42.3 22.8622 42.41 23.1222 42.41C23.3722 42.41 23.6322 42.3 23.8122 42.12C23.9922 41.94 24.0922 41.69 24.0922 41.43C24.0922 41.17 23.9922 40.92 23.8122 40.74Z" fill="#22223F"/>
</svg>
