<svg width="58" height="58" viewBox="0 0 58 58" fill="none" xmlns="http://www.w3.org/2000/svg">
<path d="M40.735 29.9063H44.4788C44.921 32.9748 47.5609 35.3438 50.75 35.3438C54.2481 35.3438 57.0938 32.4972 57.0938 29C57.0938 25.5028 54.2481 22.6563 50.75 22.6563C47.5609 22.6563 44.921 25.0252 44.4788 28.0938H40.735C40.5076 25.1294 39.1844 22.4723 37.1635 20.5257L42.3273 14.2644C43.4538 14.983 44.7869 15.4063 46.2188 15.4063C50.2162 15.4063 53.4688 12.1537 53.4688 8.15625C53.4688 4.15878 50.2162 0.90625 46.2188 0.90625C42.2213 0.90625 38.9688 4.15878 38.9688 8.15625C38.9688 10.0693 39.7191 11.8066 40.9344 13.1035L35.7661 19.3702C33.8493 18.0199 31.5185 17.2188 29 17.2188C26.4815 17.2188 24.1507 18.0199 22.2339 19.3711L17.0656 13.1044C18.2809 11.8066 19.0312 10.0693 19.0312 8.15625C19.0312 4.15878 15.7787 0.90625 11.7812 0.90625C7.78378 0.90625 4.53125 4.15878 4.53125 8.15625C4.53125 12.1537 7.78378 15.4063 11.7812 15.4063C13.214 15.4063 14.5471 14.983 15.6727 14.2635L20.8365 20.5257C18.8156 22.4732 17.4915 25.1303 17.265 28.0947H13.5212C13.079 25.0261 10.4391 22.6572 7.25 22.6572C3.75188 22.6572 0.90625 25.5037 0.90625 29.0009C0.90625 32.4981 3.75188 35.3447 7.25 35.3447C10.4391 35.3447 13.079 32.9757 13.5212 29.9072H17.265C17.4924 32.8715 18.8156 35.5286 20.8365 37.4753L15.6527 43.7601C14.5308 43.0478 13.2059 42.6291 11.7812 42.6291C7.78378 42.6291 4.53125 45.8816 4.53125 49.8791C4.53125 53.8766 7.78378 57.1291 11.7812 57.1291C15.7787 57.1291 19.0312 53.8766 19.0312 49.8791C19.0312 47.9578 18.2745 46.2133 17.0502 44.9147L22.2339 38.6289C24.1507 39.9801 26.4815 40.7813 29 40.7813C31.5185 40.7813 33.8493 39.9801 35.7661 38.6289L40.9498 44.9147C39.7255 46.2133 38.9688 47.9578 38.9688 49.8791C38.9688 53.8766 42.2213 57.1291 46.2188 57.1291C50.2162 57.1291 53.4688 53.8766 53.4688 49.8791C53.4688 45.8816 50.2162 42.6291 46.2188 42.6291C44.795 42.6291 43.4692 43.0478 42.3473 43.7601L37.1635 37.4743C39.1844 35.5277 40.5085 32.8697 40.735 29.9063ZM46.2188 2.71875C49.2175 2.71875 51.6562 5.15747 51.6562 8.15625C51.6562 11.155 49.2175 13.5938 46.2188 13.5938C43.22 13.5938 40.7812 11.155 40.7812 8.15625C40.7812 5.15747 43.22 2.71875 46.2188 2.71875ZM6.34375 8.15625C6.34375 5.15747 8.78247 2.71875 11.7812 2.71875C14.78 2.71875 17.2188 5.15747 17.2188 8.15625C17.2188 11.155 14.78 13.5938 11.7812 13.5938C8.78247 13.5938 6.34375 11.155 6.34375 8.15625ZM11.7812 55.3166C8.78247 55.3166 6.34375 52.8779 6.34375 49.8791C6.34375 46.8803 8.78247 44.4416 11.7812 44.4416C14.78 44.4416 17.2188 46.8803 17.2188 49.8791C17.2188 52.8779 14.78 55.3166 11.7812 55.3166ZM51.6562 49.8791C51.6562 52.8779 49.2175 55.3166 46.2188 55.3166C43.22 55.3166 40.7812 52.8779 40.7812 49.8791C40.7812 46.8803 43.22 44.4416 46.2188 44.4416C49.2175 44.4416 51.6562 46.8803 51.6562 49.8791ZM50.75 24.4688C53.2485 24.4688 55.2812 26.5015 55.2812 29C55.2812 31.4985 53.2485 33.5313 50.75 33.5313C48.2515 33.5313 46.2188 31.4985 46.2188 29C46.2188 26.5015 48.2515 24.4688 50.75 24.4688ZM7.25 33.5313C4.75147 33.5313 2.71875 31.4985 2.71875 29C2.71875 26.5015 4.75147 24.4688 7.25 24.4688C9.74853 24.4688 11.7812 26.5015 11.7812 29C11.7812 31.4985 9.74853 33.5313 7.25 33.5313ZM19.0312 29C19.0312 23.5036 23.5036 19.0313 29 19.0313C34.4964 19.0313 38.9688 23.5036 38.9688 29C38.9688 34.4964 34.4964 38.9688 29 38.9688C23.5036 38.9688 19.0312 34.4964 19.0312 29Z" fill="#22223F"/>
<path d="M28.0938 24.4688H29.9062C30.9058 24.4688 31.7188 25.2817 31.7188 26.2812H33.5312C33.5312 24.2821 31.9054 22.6562 29.9062 22.6562V20.8438H28.0938V22.6562C26.0946 22.6562 24.4688 24.2821 24.4688 26.2812C24.4688 28.2804 26.0946 29.9062 28.0938 29.9062H29.9062C30.9058 29.9062 31.7188 30.7192 31.7188 31.7188C31.7188 32.7183 30.9058 33.5312 29.9062 33.5312H28.0938C27.0942 33.5312 26.2812 32.7183 26.2812 31.7188V30.8125H24.4688V31.7188C24.4688 33.7179 26.0946 35.3438 28.0938 35.3438V37.1562H29.9062V35.3438C31.9054 35.3438 33.5312 33.7179 33.5312 31.7188C33.5312 29.7196 31.9054 28.0938 29.9062 28.0938H28.0938C27.0942 28.0938 26.2812 27.2808 26.2812 26.2812C26.2812 25.2817 27.0942 24.4688 28.0938 24.4688Z" fill="#1BC0F5"/>
<path d="M46.2188 11.7812C48.2179 11.7812 49.8438 10.1554 49.8438 8.15625C49.8438 6.15706 48.2179 4.53125 46.2188 4.53125C44.2196 4.53125 42.5938 6.15706 42.5938 8.15625C42.5938 10.1554 44.2196 11.7812 46.2188 11.7812ZM46.2188 6.34375C47.2183 6.34375 48.0312 7.15666 48.0312 8.15625C48.0312 9.15584 47.2183 9.96875 46.2188 9.96875C45.2192 9.96875 44.4062 9.15584 44.4062 8.15625C44.4062 7.15666 45.2192 6.34375 46.2188 6.34375Z" fill="#1BC0F5"/>
<path d="M11.7812 4.53125C9.78206 4.53125 8.15625 6.15706 8.15625 8.15625C8.15625 10.1554 9.78206 11.7812 11.7812 11.7812C13.7804 11.7812 15.4062 10.1554 15.4062 8.15625C15.4062 6.15706 13.7804 4.53125 11.7812 4.53125ZM11.7812 9.96875C10.7817 9.96875 9.96875 9.15584 9.96875 8.15625C9.96875 7.15666 10.7817 6.34375 11.7812 6.34375C12.7808 6.34375 13.5938 7.15666 13.5938 8.15625C13.5938 9.15584 12.7808 9.96875 11.7812 9.96875Z" fill="#1BC0F5"/>
<path d="M11.7812 46.2542C9.78206 46.2542 8.15625 47.88 8.15625 49.8792C8.15625 51.8783 9.78206 53.5042 11.7812 53.5042C13.7804 53.5042 15.4062 51.8783 15.4062 49.8792C15.4062 47.88 13.7804 46.2542 11.7812 46.2542ZM11.7812 51.6917C10.7817 51.6917 9.96875 50.8787 9.96875 49.8792C9.96875 48.8796 10.7817 48.0667 11.7812 48.0667C12.7808 48.0667 13.5938 48.8796 13.5938 49.8792C13.5938 50.8787 12.7808 51.6917 11.7812 51.6917Z" fill="#1BC0F5"/>
<path d="M46.2188 53.5042C48.2179 53.5042 49.8438 51.8783 49.8438 49.8792C49.8438 47.88 48.2179 46.2542 46.2188 46.2542C44.2196 46.2542 42.5938 47.88 42.5938 49.8792C42.5938 51.8783 44.2196 53.5042 46.2188 53.5042ZM46.2188 48.0667C47.2183 48.0667 48.0312 48.8796 48.0312 49.8792C48.0312 50.8787 47.2183 51.6917 46.2188 51.6917C45.2192 51.6917 44.4062 50.8787 44.4062 49.8792C44.4062 48.8796 45.2192 48.0667 46.2188 48.0667Z" fill="#1BC0F5"/>
<path d="M7.25 26.2812C5.75106 26.2812 4.53125 27.5011 4.53125 29C4.53125 30.4989 5.75106 31.7188 7.25 31.7188C8.74894 31.7188 9.96875 30.4989 9.96875 29C9.96875 27.5011 8.74894 26.2812 7.25 26.2812ZM7.25 29.9062C6.75066 29.9062 6.34375 29.5003 6.34375 29C6.34375 28.4997 6.75066 28.0938 7.25 28.0938C7.74934 28.0938 8.15625 28.4997 8.15625 29C8.15625 29.5003 7.74934 29.9062 7.25 29.9062Z" fill="#1BC0F5"/>
<path d="M50.75 31.7188C52.2489 31.7188 53.4688 30.4989 53.4688 29C53.4688 27.5011 52.2489 26.2812 50.75 26.2812C49.2511 26.2812 48.0312 27.5011 48.0312 29C48.0312 30.4989 49.2511 31.7188 50.75 31.7188ZM50.75 28.0938C51.2493 28.0938 51.6562 28.4997 51.6562 29C51.6562 29.5003 51.2493 29.9062 50.75 29.9062C50.2507 29.9062 49.8438 29.5003 49.8438 29C49.8438 28.4997 50.2507 28.0938 50.75 28.0938Z" fill="#1BC0F5"/>
</svg>
