<svg width="61" height="53" viewBox="0 0 61 53" fill="none" xmlns="http://www.w3.org/2000/svg">
<path d="M5.03561 7.39073C4.70613 7.06042 4.17105 7.06042 3.84157 7.39073C3.51326 7.71987 3.51326 8.25262 3.84157 8.58176L6.43993 11.1867L13.2417 2.66336C13.5317 2.29997 13.4729 1.77042 13.1103 1.47948C12.7463 1.18746 12.2143 1.24653 11.9233 1.61129L6.30011 8.65843L5.03561 7.39073Z" fill="#1BC0F5"/>
<path d="M52.2693 7.39073C51.9398 7.06042 51.4047 7.06042 51.0752 7.39073C50.7469 7.71987 50.7469 8.25262 51.0752 8.58176L53.6736 11.1867L60.4753 2.66336C60.7653 2.29997 60.7065 1.77042 60.3439 1.47948C59.9799 1.18746 59.448 1.24653 59.1569 1.61129L53.5337 8.65843L52.2693 7.39073Z" fill="#1BC0F5"/>
<path d="M5.03561 46.2363C4.70613 45.906 4.17105 45.906 3.84157 46.2363C3.51326 46.5655 3.51326 47.0982 3.84157 47.4273L6.43993 50.0323L13.2417 41.5089C13.5317 41.1455 13.4729 40.616 13.1103 40.3251C12.7463 40.033 12.2143 40.0921 11.9233 40.4569L6.30011 47.504L5.03561 46.2363Z" fill="#1BC0F5"/>
<path d="M53.5337 47.504L52.2693 46.2363C51.9398 45.906 51.4047 45.906 51.0752 46.2363C50.7469 46.5654 50.7469 47.0982 51.0752 47.4273L53.6736 50.0323L60.4753 41.5089C60.7653 41.1455 60.7065 40.616 60.3439 40.3251C59.9799 40.033 59.448 40.0921 59.1569 40.4569L53.5337 47.504Z" fill="#1BC0F5"/>
<path d="M58.0018 51.2996H49.5786V42.8551H55.4727C55.9391 42.8551 56.3171 42.477 56.3171 42.0106C56.3171 41.5443 55.9391 41.1662 55.4727 41.1662H54.6325V29.3439C54.6325 28.4125 53.877 27.6551 52.9479 27.6551H44.6196C44.7847 27.1197 44.9194 26.5573 45.0222 25.9662H52.9479C53.877 25.9662 54.6325 25.2087 54.6325 24.2773V14.1439H58.0018C58.9308 14.1439 59.6864 13.3864 59.6864 12.455V8.23065C59.6864 7.76545 59.3093 7.38833 58.8441 7.38833C58.3789 7.38833 58.0018 7.76545 58.0018 8.23065V12.455H49.5786V4.01055H54.6304C55.0968 4.01055 55.4748 3.63248 55.4748 3.1661C55.4748 2.69973 55.0968 2.32166 54.6304 2.32166H49.5786C48.6496 2.32166 47.894 3.07912 47.894 4.01055V12.455C47.894 13.3864 48.6496 14.1439 49.5786 14.1439H52.9479V24.2773H45.2142C45.2294 24.0003 45.242 23.7216 45.242 23.4328C45.242 15.517 38.8186 9.07723 30.9227 9.07723C23.0268 9.07723 16.6034 15.517 16.6034 23.4328C16.6034 23.7216 16.616 24.0003 16.6311 24.2773H7.21288V14.1439H10.5821C11.5112 14.1439 12.2668 13.3864 12.2668 12.455V8.23065C12.2668 7.76545 11.8896 7.38833 11.4245 7.38833C10.9593 7.38833 10.5821 7.76545 10.5821 8.23065V12.455H2.15899V4.01055H7.21075C7.67712 4.01055 8.05519 3.63248 8.05519 3.1661C8.05519 2.69973 7.67712 2.32166 7.21075 2.32166H2.15899C1.22992 2.32166 0.474365 3.07912 0.474365 4.01055V12.455C0.474365 13.3864 1.22992 14.1439 2.15899 14.1439H5.52825V24.2773C5.52825 25.2087 6.28381 25.9662 7.21288 25.9662H16.8232C16.926 26.5573 17.0607 27.1197 17.2258 27.6551H7.21288C6.28381 27.6551 5.52825 28.4125 5.52825 29.3439V41.1662H2.15899C1.22992 41.1662 0.474365 41.9237 0.474365 42.8551V51.2996C0.474365 52.231 1.22992 52.9884 2.15899 52.9884H10.5821C11.5112 52.9884 12.2668 52.231 12.2668 51.2996V47.0752C12.2668 46.61 11.8896 46.2329 11.4245 46.2329C10.9593 46.2329 10.5821 46.61 10.5821 47.0752V51.2996H2.15899V42.8551H8.05306C8.51944 42.8551 8.89751 42.477 8.89751 42.0106C8.89751 41.5443 8.51944 41.1662 8.05306 41.1662H7.21288V29.3439H17.8694C18.9568 31.7143 20.5648 33.5172 21.9739 35.0887C23.6114 36.9152 25.0265 38.4927 25.0265 40.3217C25.0265 40.7881 25.4046 41.1662 25.8709 41.1662H35.9744C36.4408 41.1662 36.8189 40.7881 36.8189 40.3217C36.8189 38.4927 38.234 36.9152 39.8714 35.0887C41.2806 33.5172 42.8886 31.7143 43.976 29.3439H52.9479V41.1662H49.5786C48.6496 41.1662 47.894 41.9237 47.894 42.8551V51.2996C47.894 52.231 48.6496 52.9884 49.5786 52.9884H58.0018C58.9308 52.9884 59.6864 52.231 59.6864 51.2996V47.0752C59.6864 46.61 59.3093 46.2329 58.8441 46.2329C58.3789 46.2329 58.0018 46.61 58.0018 47.0752V51.2996ZM29.9212 15.8328H31.9234L35.0475 30.7094L30.9227 34.1556L26.7979 30.7094L29.9212 15.8328ZM33.0588 10.9612L32 14.1439H29.8445L28.7866 10.9612C29.4832 10.8421 30.1933 10.7661 30.9227 10.7661C31.6521 10.7661 32.3622 10.8421 33.0588 10.9612ZM38.6189 33.9597C37.0362 35.7246 35.531 37.4033 35.2008 39.4773H26.6446C26.3144 37.4033 24.8092 35.7246 23.2265 33.9597C20.9118 31.3782 18.288 28.4522 18.288 23.4328C18.288 17.7691 22.0152 12.9625 27.1399 11.3471L28.3663 15.0382L24.9397 31.3563L30.9227 36.3545L36.9057 31.3563L33.4791 15.0382L34.7055 11.3471C39.8302 12.9625 43.5574 17.7691 43.5574 23.4328C43.5574 28.4522 40.9336 31.3782 38.6189 33.9597Z" fill="#22223F"/>
<path d="M31.7651 5.70032H33.4505V7.38992H31.7651V5.70032Z" fill="#22223F"/>
<path d="M35.134 5.70032H36.8194V7.38992H35.134V5.70032Z" fill="#22223F"/>
<path d="M28.3955 5.70032H30.0808V7.38992H28.3955V5.70032Z" fill="#22223F"/>
<path d="M25.0261 5.70032H26.7115V7.38992H25.0261V5.70032Z" fill="#22223F"/>
<path d="M25.0266 43.6998C25.0266 43.2334 25.4047 42.8553 25.8711 42.8553H35.9746C36.4409 42.8553 36.819 43.2334 36.819 43.6998C36.819 44.1662 36.4409 44.5442 35.9746 44.5442H25.8711C25.4047 44.5442 25.0266 44.1662 25.0266 43.6998Z" fill="#1BC0F5"/>
<path d="M25.0266 47.0778C25.0266 50.3374 27.6723 52.989 30.9228 52.989C34.1733 52.989 36.819 50.3374 36.819 47.0778C36.819 46.6115 36.4409 46.2334 35.9746 46.2334H25.8711C25.4047 46.2334 25.0266 46.6115 25.0266 47.0778ZM35.0493 47.9223C34.6576 49.8468 32.957 51.3001 30.9228 51.3001C28.8886 51.3001 27.1871 49.8468 26.7963 47.9223H35.0493Z" fill="#1BC0F5"/>
</svg>
