<svg width="47" height="35" viewBox="0 0 47 35" fill="none" xmlns="http://www.w3.org/2000/svg">
<path d="M0.252926 8.69917L0.31126 8.30642L0.372044 8.32042C0.787434 6.37774 1.74439 4.5924 3.1322 3.17095C4.52001 1.74949 6.28197 0.75004 8.21415 0.288218C10.1463 -0.173602 12.1697 -0.0789111 14.0503 0.561338C15.9309 1.20158 17.5918 2.36122 18.8408 3.90606C20.0898 5.45091 20.8759 7.31784 21.108 9.29079C21.3402 11.2638 21.009 13.2622 20.1528 15.0548C19.2965 16.8473 17.9502 18.3609 16.2696 19.4202C14.589 20.4795 12.6428 21.0413 10.6562 21.0407C10.1349 21.0407 9.63462 20.9612 9.13663 20.8887C9.29792 21.4311 9.46393 21.9828 9.73046 22.4784C9.99698 23.1985 10.4131 23.8227 10.8269 24.4516C11.1729 25.1319 11.7831 25.5924 12.232 26.1746C12.7018 26.7403 13.3424 27.1168 13.8497 27.5866C14.3477 28.0776 14.9999 28.3231 15.519 28.6691C16.0614 28.98 16.5336 29.3237 17.0386 29.4874L18.2987 30.0063L19.4068 30.4669L18.2753 35L16.8796 34.6633C16.4331 34.5511 15.8884 34.4202 15.2688 34.2636C14.6352 34.1467 13.9596 33.8264 13.2068 33.5342C12.4657 33.1999 11.6031 32.9777 10.8035 32.4424C9.99932 31.9327 9.07117 31.5072 8.25293 30.8246C7.46042 30.1209 6.50422 29.5107 5.79815 28.6177C5.0267 27.7807 4.26457 26.9017 3.67307 25.9011C2.98806 24.9472 2.52285 23.8998 2.03192 22.8642C1.58771 21.8285 1.23001 20.7695 0.937763 19.7409C0.383713 17.6788 0.135677 15.7197 0.0400124 14.0435C-0.0393219 12.3649 0.00734329 10.9692 0.105343 9.95923C0.138596 9.53748 0.187595 9.11713 0.252926 8.69917ZM25.9692 8.69917L26.0276 8.30642L26.0884 8.32042C26.5038 6.37774 27.4608 4.5924 28.8486 3.17095C30.2364 1.74949 31.9983 0.75004 33.9305 0.288218C35.8627 -0.173602 37.8861 -0.0789111 39.7667 0.561338C41.6473 1.20158 43.3082 2.36122 44.5571 3.90606C45.8062 5.45091 46.5922 7.31784 46.8244 9.29079C47.0565 11.2638 46.7254 13.2622 45.8691 15.0548C45.0129 16.8473 43.6666 18.3609 41.986 19.4202C40.3054 20.4795 38.3592 21.0413 36.3726 21.0407C35.8513 21.0407 35.351 20.9612 34.853 20.8887C35.0143 21.4311 35.1803 21.9828 35.4468 22.4784C35.7133 23.1985 36.1295 23.8227 36.5433 24.4516C36.8893 25.1319 37.4995 25.5924 37.9483 26.1746C38.4183 26.7403 39.0588 27.1168 39.5661 27.5866C40.0641 28.0776 40.7164 28.3231 41.2354 28.6691C41.7777 28.98 42.25 29.3237 42.7549 29.4874L44.0151 30.0063C44.7187 30.2939 45.1209 30.4622 45.1209 30.4622L43.9893 34.9953L42.5936 34.6587C42.1471 34.5464 41.6024 34.4155 40.9829 34.2589C40.3493 34.142 39.6737 33.8217 38.9209 33.5294C38.1798 33.1951 37.3171 32.9731 36.5176 32.4377C35.7133 31.928 34.7852 31.5025 33.967 30.8199C33.1744 30.1162 32.2182 29.506 31.5122 28.613C30.7407 27.776 29.9786 26.897 29.3871 25.8964C28.7021 24.9426 28.2369 23.8952 27.7459 22.8595C27.3017 21.8239 26.944 20.7648 26.6518 19.7361C26.0977 17.6742 25.8499 15.715 25.7541 14.0388C25.6746 12.3602 25.7214 10.9645 25.8195 9.95457C25.8544 9.53445 25.9044 9.11573 25.9692 8.69917Z" fill="url(#paint0_linear_189_315)"/>
<defs>
<linearGradient id="paint0_linear_189_315" x1="49.5984" y1="5.20387e-06" x2="-7.81982" y2="5.13138" gradientUnits="userSpaceOnUse">
<stop stop-color="#9000EB"/>
<stop offset="0.416667" stop-color="#0768F1"/>
<stop offset="1" stop-color="#1BC0F5"/>
</linearGradient>
</defs>
</svg>
