<svg width="238" height="255" viewBox="0 0 238 255" fill="none" xmlns="http://www.w3.org/2000/svg">
<path d="M187.606 53.5271L94.5121 107.731H94.466L0.97998 54.2113L94.0739 0L187.606 53.5271Z" fill="url(#paint0_linear_34_1664)"/>
<path d="M187.606 53.5269L187.998 161.258L94.8658 215.515L94.4661 107.73H94.5122L187.606 53.5269Z" fill="url(#paint1_linear_34_1664)"/>
<path d="M94.466 107.731L94.8657 215.515L1.37204 161.942L0.97998 54.2112L94.466 107.731Z" fill="url(#paint2_linear_34_1664)"/>
<path d="M94.566 107.915L94.4507 107.846V107.738L94.5352 107.792L94.566 107.807V107.915Z" fill="url(#paint3_linear_34_1664)"/>
<path d="M94.8581 188.018V188.648L94.3046 188.325L94.1585 188.248L24.7417 148.474V148.466L94.1585 188.21L94.3507 188.31L94.8581 188.018Z" fill="url(#paint4_linear_34_1664)"/>
<path d="M94.1584 188.209L94.3506 188.309L94.3045 188.325L94.1584 188.417V188.209Z" fill="url(#paint5_linear_34_1664)"/>
<path d="M94.8274 107.962L94.9504 108.015L94.8658 108.069H94.8274L94.566 107.916L94.4507 107.846V107.577L94.8274 107.362V107.962Z" fill="url(#paint6_linear_34_1664)"/>
<path d="M164.275 148.174V148.236L157.61 152.049L164.275 148.174Z" fill="url(#paint7_linear_34_1664)"/>
<path d="M164.575 66.8184V67.3565L164.106 67.0874L164.575 66.8184Z" fill="url(#paint8_linear_34_1664)"/>
<path d="M164.275 147.705V148.174L157.61 152.049L94.8658 188.587H94.8274L94.3507 188.31L94.1586 188.21L24.7417 148.466V148.42L94.4353 107.846H94.4507L94.566 107.915L94.8274 108.069H94.8658L94.9503 108.015L164.275 147.705Z" fill="url(#paint9_linear_34_1664)"/>
<path d="M24.7109 148.443L24.7417 148.42V148.466L24.7109 148.443Z" fill="url(#paint10_linear_34_1664)"/>
<path d="M94.566 107.915L94.4507 107.846V107.838L94.5352 107.792L94.566 107.807L94.8274 107.961L94.9504 108.015L94.8658 108.069H94.8274L94.566 107.915Z" fill="url(#paint11_linear_34_1664)"/>
<path d="M164.682 147.935L164.275 148.174V147.705L164.682 147.935Z" fill="url(#paint12_linear_34_1664)"/>
<path d="M94.8272 107.362L94.4505 107.577V107.846H94.4352L24.7416 148.42L24.4495 67.6642L24.8031 67.864H24.8108L94.5351 27.2671L94.8272 107.362Z" fill="url(#paint13_linear_34_1664)"/>
<path d="M94.8274 107.362V108.069L94.566 107.916L94.4507 107.846V107.577L94.8274 107.362Z" fill="url(#paint14_linear_34_1664)"/>
<path d="M164.575 67.3567V67.4874L164.275 147.705L94.9503 108.015L94.8273 107.961V107.362L94.5352 27.2671L164.106 67.0876L164.575 67.3567Z" fill="url(#paint15_linear_34_1664)"/>
<path d="M94.9501 108.015L94.8656 108.069H94.8271V107.961L94.9501 108.015Z" fill="url(#paint16_linear_34_1664)"/>
<path d="M164.682 67.4184L164.575 67.4876V67.3569L164.682 67.4184Z" fill="url(#paint17_linear_34_1664)"/>
<path d="M59.3386 90.9667L94.5851 111.496H94.6045L129.997 91.2286L94.7501 70.6997L59.3386 90.9667Z" fill="#0768F1"/>
<path d="M59.3386 90.9666L59.1931 131.753L94.4493 152.301L94.6046 111.495H94.5851L59.3386 90.9666Z" fill="url(#paint18_linear_34_1664)"/>
<path d="M94.6045 111.496L94.4492 152.301L129.851 132.015L129.996 91.2285L94.6045 111.496Z" fill="url(#paint19_linear_34_1664)"/>
<path d="M77.4531 121.441C54.5214 127.182 12.862 149.764 29.6786 194.161C50.6994 249.659 166.314 278.364 237.02 227.651" stroke="#F3F3FE"/>
<defs>
<linearGradient id="paint0_linear_34_1664" x1="0.96413" y1="53.8635" x2="187.592" y2="53.8635" gradientUnits="userSpaceOnUse">
<stop stop-color="#EAEDF3"/>
<stop offset="1" stop-color="#DADADA"/>
</linearGradient>
<linearGradient id="paint1_linear_34_1664" x1="94.4581" y1="134.518" x2="187.991" y2="134.518" gradientUnits="userSpaceOnUse">
<stop stop-color="#EAEDF3"/>
<stop offset="1" stop-color="#DADADA"/>
</linearGradient>
<linearGradient id="paint2_linear_34_1664" x1="0.972007" y1="134.86" x2="94.8585" y2="134.86" gradientUnits="userSpaceOnUse">
<stop stop-color="#E0E1E4"/>
<stop offset="1" stop-color="#DADADA"/>
</linearGradient>
<linearGradient id="paint3_linear_34_1664" x1="94.4475" y1="107.829" x2="94.5674" y2="107.829" gradientUnits="userSpaceOnUse">
<stop stop-color="#B885D0"/>
<stop offset="1" stop-color="#6774FF"/>
</linearGradient>
<linearGradient id="paint4_linear_34_1664" x1="24.7423" y1="168.555" x2="94.8573" y2="168.555" gradientUnits="userSpaceOnUse">
<stop stop-color="#B885D0"/>
<stop offset="1" stop-color="#6774FF"/>
</linearGradient>
<linearGradient id="paint5_linear_34_1664" x1="94.1575" y1="188.312" x2="94.3474" y2="188.312" gradientUnits="userSpaceOnUse">
<stop stop-color="#B885D0"/>
<stop offset="1" stop-color="#6774FF"/>
</linearGradient>
<linearGradient id="paint6_linear_34_1664" x1="94.4475" y1="107.714" x2="94.9471" y2="107.714" gradientUnits="userSpaceOnUse">
<stop stop-color="#B885D0"/>
<stop offset="1" stop-color="#6774FF"/>
</linearGradient>
<linearGradient id="paint7_linear_34_1664" x1="157.607" y1="150.112" x2="164.272" y2="150.112" gradientUnits="userSpaceOnUse">
<stop stop-color="#B885D0"/>
<stop offset="1" stop-color="#6774FF"/>
</linearGradient>
<linearGradient id="paint8_linear_34_1664" x1="164.102" y1="67.0846" x2="164.572" y2="67.0846" gradientUnits="userSpaceOnUse">
<stop stop-color="#B885D0"/>
<stop offset="1" stop-color="#6774FF"/>
</linearGradient>
<linearGradient id="paint9_linear_34_1664" x1="24.7298" y1="148.215" x2="164.264" y2="148.215" gradientUnits="userSpaceOnUse">
<stop stop-color="#EAEDF3"/>
<stop offset="1" stop-color="#DADADA"/>
</linearGradient>
<linearGradient id="paint10_linear_34_1664" x1="24.7124" y1="148.442" x2="24.7423" y2="148.442" gradientUnits="userSpaceOnUse">
<stop stop-color="#B885D0"/>
<stop offset="1" stop-color="#6774FF"/>
</linearGradient>
<linearGradient id="paint11_linear_34_1664" x1="94.4475" y1="107.928" x2="94.9471" y2="107.928" gradientUnits="userSpaceOnUse">
<stop stop-color="#B885D0"/>
<stop offset="1" stop-color="#6774FF"/>
</linearGradient>
<linearGradient id="paint12_linear_34_1664" x1="164.272" y1="147.938" x2="164.682" y2="147.938" gradientUnits="userSpaceOnUse">
<stop stop-color="#B885D0"/>
<stop offset="1" stop-color="#6774FF"/>
</linearGradient>
<linearGradient id="paint13_linear_34_1664" x1="24.4435" y1="87.8414" x2="94.8218" y2="87.8414" gradientUnits="userSpaceOnUse">
<stop stop-color="#EAEDF3"/>
<stop offset="1" stop-color="#DADADA"/>
</linearGradient>
<linearGradient id="paint14_linear_34_1664" x1="94.4475" y1="107.714" x2="94.8272" y2="107.714" gradientUnits="userSpaceOnUse">
<stop stop-color="#B885D0"/>
<stop offset="1" stop-color="#6774FF"/>
</linearGradient>
<linearGradient id="paint15_linear_34_1664" x1="94.5292" y1="87.4839" x2="164.569" y2="87.4839" gradientUnits="userSpaceOnUse">
<stop stop-color="#EAEDF3"/>
<stop offset="1" stop-color="#DADADA"/>
</linearGradient>
<linearGradient id="paint16_linear_34_1664" x1="94.827" y1="108.014" x2="94.9469" y2="108.014" gradientUnits="userSpaceOnUse">
<stop stop-color="#B885D0"/>
<stop offset="1" stop-color="#6774FF"/>
</linearGradient>
<linearGradient id="paint17_linear_34_1664" x1="164.572" y1="67.4199" x2="164.682" y2="67.4199" gradientUnits="userSpaceOnUse">
<stop stop-color="#B885D0"/>
<stop offset="1" stop-color="#6774FF"/>
</linearGradient>
<linearGradient id="paint18_linear_34_1664" x1="57.1529" y1="90.9666" x2="100.791" y2="92.647" gradientUnits="userSpaceOnUse">
<stop stop-color="#9000EB"/>
<stop offset="0.416667" stop-color="#0768F1"/>
<stop offset="1" stop-color="#1BC0F5"/>
</linearGradient>
<linearGradient id="paint19_linear_34_1664" x1="92.4012" y1="91.2285" x2="136.205" y2="92.9291" gradientUnits="userSpaceOnUse">
<stop stop-color="#9000EB"/>
<stop offset="0.416667" stop-color="#0768F1"/>
<stop offset="1" stop-color="#1BC0F5"/>
</linearGradient>
</defs>
</svg>
