<svg width="21" height="25" viewBox="0 0 21 25" fill="none" xmlns="http://www.w3.org/2000/svg">
<path d="M16.0423 2.695V0.875C16.0423 0.396667 15.6456 0 15.1673 0C14.6889 0 14.2923 0.396667 14.2923 0.875V2.625H6.70893V0.875C6.70893 0.396667 6.31226 0 5.83393 0C5.35559 0 4.95893 0.396667 4.95893 0.875V2.695C1.80893 2.98667 0.280593 4.865 0.0472596 7.65333C0.0239262 7.99167 0.303926 8.27167 0.630593 8.27167H20.3706C20.7089 8.27167 20.9889 7.98 20.9539 7.65333C20.7206 4.865 19.1923 2.98667 16.0423 2.695Z" fill="url(#paint0_linear_189_297)"/>
<path d="M19.8333 10.0215H1.16667C0.525 10.0215 0 10.5465 0 11.1882V18.3748C0 21.8748 1.75 24.2081 5.83333 24.2081H15.1667C19.25 24.2081 21 21.8748 21 18.3748V11.1882C21 10.5465 20.475 10.0215 19.8333 10.0215ZM7.245 19.7865C7.18667 19.8331 7.12833 19.8915 7.07 19.9265C7 19.9732 6.93 20.0082 6.86 20.0315C6.79 20.0665 6.72 20.0898 6.65 20.1015C6.56833 20.1131 6.49833 20.1248 6.41667 20.1248C6.265 20.1248 6.11333 20.0898 5.97333 20.0315C5.82167 19.9732 5.705 19.8915 5.58833 19.7865C5.37833 19.5648 5.25 19.2615 5.25 18.9582C5.25 18.6548 5.37833 18.3515 5.58833 18.1298C5.705 18.0248 5.82167 17.9432 5.97333 17.8848C6.18333 17.7915 6.41667 17.7682 6.65 17.8148C6.72 17.8265 6.79 17.8498 6.86 17.8848C6.93 17.9082 7 17.9432 7.07 17.9898C7.12833 18.0365 7.18667 18.0832 7.245 18.1298C7.455 18.3515 7.58333 18.6548 7.58333 18.9582C7.58333 19.2615 7.455 19.5648 7.245 19.7865ZM7.245 15.7032C7.02333 15.9132 6.72 16.0415 6.41667 16.0415C6.11333 16.0415 5.81 15.9132 5.58833 15.7032C5.37833 15.4815 5.25 15.1782 5.25 14.8748C5.25 14.5715 5.37833 14.2682 5.58833 14.0465C5.915 13.7198 6.42833 13.6148 6.86 13.8015C7.01167 13.8598 7.14 13.9415 7.245 14.0465C7.455 14.2682 7.58333 14.5715 7.58333 14.8748C7.58333 15.1782 7.455 15.4815 7.245 15.7032ZM11.3283 19.7865C11.1067 19.9965 10.8033 20.1248 10.5 20.1248C10.1967 20.1248 9.89333 19.9965 9.67167 19.7865C9.46167 19.5648 9.33333 19.2615 9.33333 18.9582C9.33333 18.6548 9.46167 18.3515 9.67167 18.1298C10.1033 17.6982 10.8967 17.6982 11.3283 18.1298C11.5383 18.3515 11.6667 18.6548 11.6667 18.9582C11.6667 19.2615 11.5383 19.5648 11.3283 19.7865ZM11.3283 15.7032C11.27 15.7498 11.2117 15.7965 11.1533 15.8432C11.0833 15.8898 11.0133 15.9248 10.9433 15.9482C10.8733 15.9832 10.8033 16.0065 10.7333 16.0182C10.6517 16.0298 10.5817 16.0415 10.5 16.0415C10.1967 16.0415 9.89333 15.9132 9.67167 15.7032C9.46167 15.4815 9.33333 15.1782 9.33333 14.8748C9.33333 14.5715 9.46167 14.2682 9.67167 14.0465C9.77667 13.9415 9.905 13.8598 10.0567 13.8015C10.4883 13.6148 11.0017 13.7198 11.3283 14.0465C11.5383 14.2682 11.6667 14.5715 11.6667 14.8748C11.6667 15.1782 11.5383 15.4815 11.3283 15.7032ZM15.4117 19.7865C15.19 19.9965 14.8867 20.1248 14.5833 20.1248C14.28 20.1248 13.9767 19.9965 13.755 19.7865C13.545 19.5648 13.4167 19.2615 13.4167 18.9582C13.4167 18.6548 13.545 18.3515 13.755 18.1298C14.1867 17.6982 14.98 17.6982 15.4117 18.1298C15.6217 18.3515 15.75 18.6548 15.75 18.9582C15.75 19.2615 15.6217 19.5648 15.4117 19.7865ZM15.4117 15.7032C15.3533 15.7498 15.295 15.7965 15.2367 15.8432C15.1667 15.8898 15.0967 15.9248 15.0267 15.9482C14.9567 15.9832 14.8867 16.0065 14.8167 16.0182C14.735 16.0298 14.6533 16.0415 14.5833 16.0415C14.28 16.0415 13.9767 15.9132 13.755 15.7032C13.545 15.4815 13.4167 15.1782 13.4167 14.8748C13.4167 14.5715 13.545 14.2682 13.755 14.0465C13.8717 13.9415 13.9883 13.8598 14.14 13.8015C14.35 13.7082 14.5833 13.6848 14.8167 13.7315C14.8867 13.7432 14.9567 13.7665 15.0267 13.8015C15.0967 13.8248 15.1667 13.8598 15.2367 13.9065C15.295 13.9532 15.3533 13.9998 15.4117 14.0465C15.6217 14.2682 15.75 14.5715 15.75 14.8748C15.75 15.1782 15.6217 15.4815 15.4117 15.7032Z" fill="url(#paint1_linear_189_297)"/>
<defs>
<linearGradient id="paint0_linear_189_297" x1="-1.15885" y1="1.22985e-06" x2="23.9347" y2="4.2311" gradientUnits="userSpaceOnUse">
<stop stop-color="#9000EB"/>
<stop offset="0.416667" stop-color="#0768F1"/>
<stop offset="1" stop-color="#1BC0F5"/>
</linearGradient>
<linearGradient id="paint1_linear_189_297" x1="-1.20988" y1="10.0215" x2="24.4567" y2="12.5556" gradientUnits="userSpaceOnUse">
<stop stop-color="#9000EB"/>
<stop offset="0.416667" stop-color="#0768F1"/>
<stop offset="1" stop-color="#1BC0F5"/>
</linearGradient>
</defs>
</svg>
