<svg width="49" height="49" viewBox="0 0 49 49" fill="none" xmlns="http://www.w3.org/2000/svg">
<path d="M42.1063 28.3159C39.9903 28.3159 38.2785 26.5922 38.2785 24.4881C38.2785 22.8833 39.289 21.4449 40.7987 20.8862L41.084 20.7792L41.1672 20.4583C40.6322 13.2069 35.4493 6.97793 28.5784 5.23047L28.2693 5.14726L28.0078 5.38501C27.2708 6.83528 25.975 7.65551 24.4891 7.65551C23.0269 7.65551 21.7074 6.83528 21.0536 5.52766L20.911 5.24236L20.5544 5.2067C13.5527 6.96604 8.34596 13.1713 7.79914 20.3037L7.77536 20.6009L8.03689 20.8149C9.68924 21.4449 10.6997 22.8595 10.6997 24.4881C10.6997 26.6041 8.97599 28.3159 6.87192 28.3159C4.76784 28.3159 3.04416 26.5922 3.04416 24.4881C3.04416 22.8477 4.09026 21.3974 5.63562 20.8625L5.88526 20.7792L5.99225 20.5058C6.39642 14.4432 9.6298 8.95124 14.6582 5.7773L16.3343 4.71931H7.66837V6.77584C7.66837 7.27511 7.2642 7.6674 6.77682 7.6674H0.892534C0.405149 7.6674 0.000976562 7.26323 0.000976562 6.76395V0.891558C0.000976562 0.404173 0.405149 0 0.892534 0H6.76493C7.2642 0 7.65649 0.404173 7.65649 0.891558V2.9362H20.7327L20.8397 2.61524C21.4221 1.03421 22.8486 0 24.4891 0C26.1058 0 27.5561 1.02232 28.1029 2.5558L28.198 2.81732L28.4952 2.92431L41.3098 2.9362V0.891558C41.3098 0.392285 41.714 0 42.2014 0H48.0738C48.573 0 48.9653 0.404173 48.9653 0.891558V6.76395C48.9653 7.26323 48.5612 7.65551 48.0738 7.65551H42.2014C41.7021 7.65551 41.3098 7.25134 41.3098 6.76395V4.7312H32.6439L34.32 5.78918C39.3484 8.97502 42.5818 14.4195 42.9622 20.3632L42.9741 20.6247L43.2118 20.803C44.8879 21.3974 45.934 22.8239 45.934 24.4881C45.9459 26.6041 44.2222 28.3159 42.1063 28.3159ZM42.1063 22.4435C40.977 22.4435 40.0616 23.3588 40.0616 24.4881C40.0616 25.6174 40.977 26.5328 42.1063 26.5328C43.2356 26.5328 44.1509 25.6174 44.1509 24.4881C44.1509 23.3588 43.2356 22.4435 42.1063 22.4435ZM6.87192 22.4435C5.74261 22.4435 4.82728 23.3588 4.82728 24.4881C4.82728 25.6174 5.74261 26.5328 6.87192 26.5328C8.00122 26.5328 8.91656 25.6174 8.91656 24.4881C8.91656 23.3588 7.98934 22.4435 6.87192 22.4435ZM43.1048 5.87239H47.1941V1.795H43.1048V5.87239ZM24.4891 1.795C23.3598 1.795 22.4445 2.71034 22.4445 3.83964C22.4445 4.96895 23.3598 5.88428 24.4891 5.88428C25.6184 5.88428 26.5337 4.96895 26.5337 3.83964C26.5337 2.71034 25.6184 1.795 24.4891 1.795ZM1.78409 5.87239H5.87337V1.795H1.78409V5.87239Z" fill="#22223F"/>
<path d="M15.6805 48.9764C15.1813 48.9764 14.789 48.5722 14.789 48.0848C14.789 46.2779 15.4903 44.5661 16.7623 43.2585C16.9406 43.0683 17.1546 42.89 17.3685 42.7117L17.535 42.569L17.5825 42.3194C17.0595 37.9924 15.1099 33.9982 12.1143 31.0025C11.8171 30.7054 11.7696 30.2299 11.9954 29.8732L23.7402 12.2561C23.9185 12.0064 24.1919 11.8638 24.4891 11.8638C24.7625 11.8638 25.0122 11.9826 25.1786 12.1966L36.9709 29.8851C37.2087 30.2417 37.1611 30.7172 36.8521 31.0144C33.8564 34.0101 31.9069 37.9924 31.3838 42.2124L31.3601 42.4264L31.5027 42.6403C31.8118 42.9019 32.0139 43.0921 32.2041 43.2823C33.476 44.5899 34.1774 46.3017 34.1774 48.1086C34.1774 48.6078 33.7732 49.0001 33.2858 49.0001H15.6805V48.9764ZM21.5529 43.0089C19.4964 43.0089 17.5587 44.4116 16.8574 46.4324L16.5959 47.1932H32.3943L32.1327 46.4324C31.4314 44.4235 29.4937 43.0089 27.4372 43.0089H21.5529ZM27.4253 41.2139C27.984 41.2139 28.5308 41.2852 29.0658 41.4159L29.4818 41.5229L29.7196 41.1544C30.4328 37.1246 32.1803 33.4989 34.7955 30.5865L34.9976 30.3606L34.9144 30.0278L25.3807 15.6915V26.6042L25.7016 26.7112C27.2946 27.2699 28.3169 28.6964 28.3169 30.3487C28.3169 32.4647 26.5932 34.1765 24.4891 34.1765C22.385 34.1765 20.6614 32.4528 20.6614 30.3487C20.6614 28.732 21.6837 27.2818 23.2172 26.735L23.4787 26.6399L23.5857 26.3427L23.5976 15.6796L13.8974 30.2418L14.147 30.5152C16.7979 33.4751 18.5454 37.0889 19.2111 40.9523L19.2824 41.3803L19.7223 41.4397C20.4355 41.2733 20.9823 41.202 21.5648 41.202H27.4253V41.2139ZM24.4891 28.316C23.3598 28.316 22.4445 29.2313 22.4445 30.3606C22.4445 31.4899 23.3598 32.4053 24.4891 32.4053C25.6184 32.4053 26.5338 31.4899 26.5338 30.3606C26.5338 29.2313 25.6184 28.316 24.4891 28.316Z" fill="#22223F"/>
<path d="M28.1565 2.78166C28.1327 2.69845 28.109 2.62712 28.0852 2.5558C27.5503 1.02232 26.1 0 24.4714 0C22.8072 0 21.0835 1.21252 20.7744 2.91242C20.5842 3.91097 20.7031 5.02839 21.2499 5.89617C21.7254 6.64508 22.4505 7.21568 23.2946 7.48909C23.675 7.61985 24.0791 7.67929 24.4833 7.67929C26.1832 7.67929 27.895 6.44299 28.1922 4.71931C28.2754 4.11305 28.3111 3.38792 28.1565 2.78166ZM24.4714 5.87239C23.354 5.87239 22.4387 4.95706 22.4387 3.82776C22.4387 2.71034 23.354 1.795 24.4714 1.795C25.6007 1.795 26.5161 2.71034 26.5161 3.82776C26.5161 4.95706 25.6007 5.87239 24.4714 5.87239Z" fill="#1BC0F5"/>
<path d="M10.5165 23.4705C10.4927 23.3873 10.469 23.316 10.4452 23.2446C9.91024 21.7112 8.45997 20.6888 6.83139 20.6888C5.16715 20.6888 3.44347 21.9014 3.1344 23.6013C2.9442 24.5998 3.06308 25.7172 3.6099 26.585C4.0854 27.3339 4.81053 27.9045 5.65454 28.1779C6.03494 28.3087 6.43911 28.3681 6.84328 28.3681C8.54319 28.3681 10.255 27.1318 10.5522 25.4082C10.6354 24.8019 10.671 24.0768 10.5165 23.4705ZM6.83139 26.5612C5.71398 26.5612 4.79864 25.6459 4.79864 24.5166C4.79864 23.3992 5.71398 22.4838 6.83139 22.4838C7.9607 22.4838 8.87604 23.3992 8.87604 24.5166C8.87604 25.6459 7.9607 26.5612 6.83139 26.5612Z" fill="#1BC0F5"/>
<path d="M28.1565 29.2417C28.1327 29.1585 28.109 29.0872 28.0852 29.0159C27.5503 27.4824 26.1 26.4601 24.4714 26.4601C22.8072 26.4601 21.0835 27.6726 20.7744 29.3725C20.5842 30.3711 20.7031 31.4885 21.2499 32.3563C21.7254 33.1052 22.4505 33.6758 23.2946 33.9492C23.675 34.0799 24.0791 34.1394 24.4833 34.1394C26.1832 34.1394 27.895 32.9031 28.1922 31.1794C28.2754 30.5731 28.3111 29.848 28.1565 29.2417ZM24.4714 32.3325C23.354 32.3325 22.4387 31.4171 22.4387 30.2878C22.4387 29.1704 23.354 28.2551 24.4714 28.2551C25.6007 28.2551 26.5161 29.1704 26.5161 30.2878C26.5161 31.4171 25.6007 32.3325 24.4714 32.3325Z" fill="#1BC0F5"/>
<path d="M45.7965 23.4705C45.7728 23.3873 45.749 23.316 45.7252 23.2446C45.1903 21.7112 43.74 20.6888 42.1114 20.6888C40.4472 20.6888 38.7235 21.9014 38.4144 23.6013C38.2242 24.5998 38.3431 25.7172 38.8899 26.585C39.3654 27.3339 40.0906 27.9045 40.9346 28.1779C41.315 28.3087 41.7191 28.3681 42.1233 28.3681C43.8232 28.3681 45.535 27.1318 45.8322 25.4082C45.9154 24.8019 45.9511 24.0768 45.7965 23.4705ZM42.1114 26.5612C40.994 26.5612 40.0787 25.6459 40.0787 24.5166C40.0787 23.3992 40.994 22.4838 42.1114 22.4838C43.2407 22.4838 44.1561 23.3992 44.1561 24.5166C44.1561 25.6459 43.2407 26.5612 42.1114 26.5612Z" fill="#1BC0F5"/>
</svg>
