<svg width="23" height="27" viewBox="0 0 23 27" fill="none" xmlns="http://www.w3.org/2000/svg">
<path d="M11.4924 15.8397C8.88088 15.8397 6.74756 13.7186 6.74756 11.0949C6.74756 8.47111 8.88088 6.3623 11.4924 6.3623C14.1038 6.3623 16.2372 8.48337 16.2372 11.1071C16.2372 13.7309 14.1038 15.8397 11.4924 15.8397ZM11.4924 8.20138C9.8985 8.20138 8.58663 9.50099 8.58663 11.1071C8.58663 12.7132 9.88624 14.0128 11.4924 14.0128C13.0985 14.0128 14.3981 12.7132 14.3981 11.1071C14.3981 9.50099 13.0862 8.20138 11.4924 8.20138Z" fill="white"/>
<path d="M11.4962 26.3723C9.68166 26.3723 7.85485 25.6857 6.43263 24.3248C2.81579 20.8428 -1.18112 15.2888 0.326915 8.68042C1.68783 2.68505 6.92305 0 11.4962 0C11.4962 0 11.4962 0 11.5085 0C16.0816 0 21.3169 2.68505 22.6778 8.69268C24.1736 15.3011 20.1766 20.8428 16.5598 24.3248C15.1376 25.6857 13.3108 26.3723 11.4962 26.3723ZM11.4962 1.83907C7.92841 1.83907 3.34299 3.73945 2.12921 9.08502C0.805074 14.8597 4.43418 19.8375 7.71998 22.9884C9.84105 25.0359 13.1636 25.0359 15.2847 22.9884C18.5583 19.8375 22.1874 14.8597 20.8877 9.08502C19.6617 3.73945 15.064 1.83907 11.4962 1.83907Z" fill="white"/>
</svg>
