<svg width="47" height="35" viewBox="0 0 47 35" fill="none" xmlns="http://www.w3.org/2000/svg">
<path d="M46.6436 8.69917L46.5852 8.30642L46.5244 8.32042C46.1091 6.37774 45.1521 4.5924 43.7643 3.17095C42.3765 1.74949 40.6145 0.75004 38.6823 0.288218C36.7502 -0.173602 34.7268 -0.0789111 32.8461 0.561338C30.9656 1.20158 29.3047 2.36122 28.0557 3.90606C26.8067 5.45091 26.0206 7.31784 25.7885 9.29079C25.5563 11.2638 25.8875 13.2622 26.7437 15.0548C27.6 16.8473 28.9463 18.3609 30.6269 19.4202C32.3075 20.4795 34.2537 21.0413 36.2403 21.0407C36.7616 21.0407 37.2619 20.9612 37.7599 20.8887C37.5986 21.4311 37.4326 21.9828 37.166 22.4784C36.8995 23.1985 36.4834 23.8227 36.0696 24.4516C35.7236 25.1319 35.1134 25.5924 34.6645 26.1746C34.1946 26.7403 33.5541 27.1168 33.0468 27.5866C32.5488 28.0776 31.8965 28.3231 31.3775 28.6691C30.8351 28.98 30.3629 29.3237 29.8579 29.4874L28.5978 30.0063L27.4896 30.4669L28.6212 35L30.0169 34.6633C30.4634 34.5511 31.0081 34.4202 31.6277 34.2636C32.2612 34.1467 32.9369 33.8264 33.6897 33.5342C34.4308 33.1999 35.2934 32.9777 36.093 32.4424C36.8972 31.9327 37.8253 31.5072 38.6436 30.8246C39.4361 30.1209 40.3923 29.5107 41.0983 28.6177C41.8698 27.7807 42.6319 26.9017 43.2234 25.9011C43.9084 24.9472 44.3736 23.8998 44.8646 22.8642C45.3088 21.8285 45.6665 20.7695 45.9587 19.7409C46.5128 17.6788 46.7608 15.7197 46.8565 14.0435C46.9358 12.3649 46.8891 10.9692 46.7911 9.95923C46.7579 9.53748 46.7089 9.11713 46.6436 8.69917ZM20.9273 8.69917L20.8689 8.30642L20.8081 8.32042C20.3927 6.37774 19.4357 4.5924 18.0479 3.17095C16.6601 1.74949 14.8982 0.75004 12.966 0.288218C11.0338 -0.173602 9.0104 -0.0789111 7.12979 0.561338C5.24918 1.20158 3.58832 2.36122 2.33934 3.90606C1.09031 5.45091 0.304268 7.31784 0.0721011 9.29079C-0.160066 11.2638 0.171093 13.2622 1.02737 15.0548C1.88358 16.8473 3.22992 18.3609 4.9105 19.4202C6.59108 20.4795 8.53726 21.0413 10.5239 21.0407C11.0452 21.0407 11.5455 20.9612 12.0435 20.8887C11.8821 21.4311 11.7162 21.9828 11.4497 22.4784C11.1831 23.1985 10.767 23.8227 10.3532 24.4516C10.0072 25.1319 9.39703 25.5924 8.94816 26.1746C8.47822 26.7403 7.83767 27.1168 7.33034 27.5866C6.83241 28.0776 6.18012 28.3231 5.66113 28.6691C5.11875 28.98 4.64648 29.3237 4.14155 29.4874L2.88143 30.0063C2.17776 30.2939 1.77561 30.4622 1.77561 30.4622L2.90716 34.9953L4.30284 34.6587C4.74938 34.5464 5.2941 34.4155 5.9136 34.2589C6.54716 34.142 7.22283 33.8217 7.97562 33.5294C8.71669 33.1951 9.57938 32.9731 10.3789 32.4377C11.1831 31.928 12.1113 31.5025 12.9295 30.8199C13.722 30.1162 14.6782 29.506 15.3842 28.613C16.1558 27.776 16.9179 26.897 17.5094 25.8964C18.1943 24.9426 18.6596 23.8952 19.1505 22.8595C19.5947 21.8239 19.9524 20.7648 20.2446 19.7361C20.7987 17.6742 21.0465 15.715 21.1424 14.0388C21.2219 12.3602 21.1751 10.9645 21.0769 9.95457C21.0421 9.53445 20.9921 9.11573 20.9273 8.69917Z" fill="url(#paint0_linear_189_316)"/>
<defs>
<linearGradient id="paint0_linear_189_316" x1="-2.70187" y1="5.20387e-06" x2="54.7163" y2="5.13138" gradientUnits="userSpaceOnUse">
<stop stop-color="#9000EB"/>
<stop offset="0.416667" stop-color="#0768F1"/>
<stop offset="1" stop-color="#1BC0F5"/>
</linearGradient>
</defs>
</svg>
