<svg width="30" height="30" viewBox="0 0 30 30" fill="none" xmlns="http://www.w3.org/2000/svg">
<path fill-rule="evenodd" clip-rule="evenodd" d="M30 4C30 1.79086 28.2091 0 26 0H4C1.79086 0 0 1.79086 0 4V26C0 28.2091 1.79086 30 4 30H26C28.2091 30 30 28.2091 30 26V4ZM21.8737 10.0016C22.6174 9.90712 23.3306 9.7125 24 9.41887C23.4982 10.1659 22.8829 10.815 22.1505 11.3348C22.1584 11.4911 22.164 11.6486 22.164 11.8117C22.164 16.6875 18.4515 22.3125 11.661 22.3125C9.57187 22.3125 7.63462 21.7106 6 20.6565C6.29025 20.6936 6.5805 20.7071 6.88312 20.7071C8.60888 20.7071 10.203 20.1154 11.4585 19.1332C9.84525 19.0984 8.4885 18.024 8.01038 16.5626C8.23425 16.6121 8.47275 16.6256 8.709 16.6256C9.04875 16.6256 9.37613 16.5863 9.6765 16.5041C7.99913 16.161 6.72 14.6715 6.72 12.8783V12.8378C7.21275 13.1089 7.79437 13.281 8.38725 13.2922C7.40625 12.6364 6.74813 11.5035 6.74813 10.2255C6.74813 9.54488 6.93488 8.91263 7.25325 8.36025C9.07687 10.6001 11.7915 12.0705 14.8594 12.2201C14.7986 11.9524 14.7739 11.6711 14.7739 11.3786C14.7739 9.34575 16.4186 7.6875 18.4616 7.6875C19.5146 7.6875 20.4799 8.13412 21.1571 8.85525C21.9964 8.68762 22.7839 8.38725 23.4971 7.962C23.2226 8.82712 22.6388 9.54488 21.8737 10.0016Z" fill="#136FFB"/>
</svg>
