<svg width="30" height="30" viewBox="0 0 30 30" fill="none" xmlns="http://www.w3.org/2000/svg">
<path fill-rule="evenodd" clip-rule="evenodd" d="M26 0C28.2091 0 30 1.79086 30 4V26C30 28.2091 28.2091 30 26 30H4C1.79086 30 0 28.2091 0 26V4C0 1.79086 1.79086 0 4 0H26ZM16.0877 4.00081L13.8972 4.0008C11.8888 4.0043 11.4716 4.02015 10.4608 4.06595C6.46872 4.24916 4.25008 6.46414 4.06687 10.4599C4.02028 11.4715 4.00432 11.8888 4.00081 13.8972L4.0008 16.0877C4.0043 18.0964 4.02015 18.5142 4.06595 19.525C4.24916 23.5171 6.46414 25.7358 10.4599 25.919C11.4715 25.9648 11.8888 25.9806 13.8972 25.9841H16.0877C18.0964 25.9806 18.5142 25.9648 19.525 25.919C23.5135 25.7358 25.7376 23.5208 25.9181 19.525C25.9646 18.5142 25.9806 18.0964 25.9841 16.0877L25.9841 13.8972C25.9806 11.8888 25.9648 11.4716 25.919 10.4608C25.7394 6.47239 23.5217 4.25008 19.5259 4.06687C18.5143 4.02028 18.0964 4.00432 16.0877 4.00081ZM19.4352 6.04551C22.4142 6.18109 23.8057 7.59453 23.9412 10.5515C23.9887 11.5861 24.0018 11.9745 24.0041 14.1349L24.0041 15.8252C24.0017 18.0098 23.9881 18.3963 23.9412 19.4352C23.8048 22.3895 22.417 23.8057 19.4352 23.9412C18.3555 23.9907 17.9809 24.0036 15.5642 24.0052L14.4019 24.0052C12.0036 24.0036 11.6266 23.9906 10.5506 23.9412C7.56431 23.8048 6.18017 22.3849 6.0446 19.4343C5.99696 18.3954 5.9832 18.0089 5.98086 15.8243L5.98092 14.134C5.98349 11.9738 5.99798 11.586 6.0446 10.5506C6.18109 7.59453 7.56889 6.18017 10.5506 6.0446C11.586 5.99798 11.9738 5.98422 14.134 5.98181L15.8509 5.98181C18.0114 5.98423 18.3998 5.99808 19.4352 6.04551ZM14.9925 9.34783C11.8752 9.34783 9.34783 11.8752 9.34783 14.9925C9.34783 18.1097 11.8752 20.638 14.9925 20.638C18.1097 20.638 20.6371 18.1107 20.6371 14.9925C20.6371 11.8752 18.1097 9.34783 14.9925 9.34783ZM14.9925 11.3283C17.016 11.3283 18.6566 12.9689 18.6566 14.9925C18.6566 17.0169 17.016 18.6566 14.9925 18.6566C12.9689 18.6566 11.3283 17.0169 11.3283 14.9925C11.3283 12.9689 12.9689 11.3283 14.9925 11.3283ZM20.8606 7.80614C20.1314 7.80614 19.5406 8.39698 19.5406 9.12523C19.5406 9.85349 20.1314 10.4443 20.8606 10.4443C21.5889 10.4443 22.1788 9.85349 22.1788 9.12523C22.1788 8.39698 21.5889 7.80614 20.8606 7.80614Z" fill="#136FFB"/>
</svg>
