<?xml version="1.0" encoding="UTF-8" standalone="no"?>
<!-- Created with Inkscape (http://www.inkscape.org/) -->

<svg
   width="7.8771515mm"
   height="7.9268188mm"
   viewBox="0 0 7.8771515 7.9268188"
   version="1.1"
   id="svg5"
   xml:space="preserve"
   xmlns="http://www.w3.org/2000/svg"
   xmlns:svg="http://www.w3.org/2000/svg"><defs
     id="defs2" /><g
     id="layer1"
     transform="translate(-139.23899,-273.46105)"><path
       style="fill:#136ffb;fill-opacity:1;stroke-width:0.00889342"
       d="m 141.78894,281.38416 c -0.88655,-0.003 -1.00963,-0.007 -1.08055,-0.0197 -0.044,-0.008 -0.11093,-0.0231 -0.1486,-0.033 -0.0378,-0.009 -0.10774,-0.0321 -0.15563,-0.0493 -0.0478,-0.0172 -0.13197,-0.0534 -0.18669,-0.0804 -0.0549,-0.0272 -0.13844,-0.0753 -0.18588,-0.10694 -0.0475,-0.0317 -0.11672,-0.0831 -0.15385,-0.11408 -0.0372,-0.031 -0.10409,-0.0942 -0.14866,-0.14034 -0.0445,-0.0461 -0.10888,-0.12164 -0.14302,-0.16777 -0.0341,-0.0461 -0.085,-0.12243 -0.11287,-0.16968 -0.0281,-0.0471 -0.0707,-0.13259 -0.095,-0.18982 -0.0243,-0.0573 -0.056,-0.14431 -0.0706,-0.19353 -0.0146,-0.0492 -0.0355,-0.13588 -0.0465,-0.19258 l -0.0198,-0.10307 -0.002,-2.34785 c -0.001,-1.6141 3.1e-4,-2.37428 0.007,-2.43237 0.006,-0.0465 0.0178,-0.12653 0.028,-0.17786 0.0102,-0.0514 0.0344,-0.14125 0.0539,-0.19974 0.0195,-0.0584 0.0567,-0.15052 0.0827,-0.20455 0.026,-0.0541 0.0763,-0.14222 0.11184,-0.19601 0.0355,-0.0538 0.0875,-0.12588 0.11554,-0.16009 0.0281,-0.0342 0.0925,-0.10227 0.14323,-0.15133 0.0508,-0.049 0.12269,-0.11184 0.15988,-0.13961 0.0372,-0.0278 0.10523,-0.0733 0.15117,-0.10147 0.046,-0.0281 0.12137,-0.0687 0.16762,-0.0904 0.0462,-0.0216 0.13024,-0.0546 0.18675,-0.0733 0.0565,-0.0187 0.14276,-0.0421 0.19172,-0.052 0.0489,-0.0103 0.12494,-0.0222 0.16897,-0.0273 0.0529,-0.007 0.85599,-0.009 2.36736,-0.009 2.00188,-7e-5 2.30046,10e-4 2.39233,0.0135 0.0577,0.008 0.15152,0.0253 0.20843,0.0395 0.057,0.0144 0.14298,0.0405 0.19122,0.0585 0.0482,0.0179 0.12706,0.0527 0.175,0.0772 0.0479,0.0245 0.11607,0.0633 0.15119,0.0864 0.0351,0.0229 0.0965,0.0663 0.13625,0.0962 0.0397,0.0299 0.1083,0.0897 0.15211,0.13273 0.0438,0.0431 0.10615,0.11104 0.13823,0.1511 0.0321,0.04 0.0805,0.10671 0.10739,0.14812 0.027,0.0413 0.0714,0.11965 0.0986,0.174 0.0273,0.0543 0.0633,0.1357 0.0802,0.18093 0.0168,0.0452 0.0405,0.12071 0.0527,0.16781 0.0119,0.047 0.0293,0.12706 0.038,0.17787 0.0149,0.0867 0.0161,0.23126 0.0188,2.38235 0.002,1.61317 0,2.32424 -0.007,2.40567 -0.006,0.0635 -0.0179,0.15563 -0.0277,0.20455 -0.009,0.0489 -0.0282,0.12296 -0.0407,0.16453 -0.012,0.0416 -0.0346,0.10557 -0.049,0.14229 -0.0143,0.0367 -0.0463,0.10683 -0.0712,0.15563 -0.0247,0.0489 -0.0631,0.11699 -0.0852,0.15119 -0.0221,0.0342 -0.0571,0.0843 -0.0778,0.11116 -0.0206,0.0269 -0.0492,0.0626 -0.0632,0.0796 -0.014,0.017 -0.0557,0.0613 -0.0924,0.0986 -0.0367,0.0372 -0.0948,0.0907 -0.12892,0.11845 -0.0342,0.0278 -0.0672,0.0547 -0.0732,0.0596 -0.007,0.006 -0.0481,0.033 -0.0934,0.0624 -0.0453,0.0294 -0.1264,0.0752 -0.18018,0.10181 -0.0538,0.0266 -0.13051,0.0604 -0.17054,0.0752 -0.04,0.0147 -0.11082,0.0366 -0.1573,0.0487 -0.0465,0.012 -0.11992,0.0286 -0.16297,0.0367 -0.0559,0.0102 -0.14452,0.0157 -0.3096,0.0181 -0.1272,10e-4 -0.74949,0.003 -1.38291,0.006 -0.63345,0.001 -1.60194,1e-4 -2.15223,-0.002 z m -0.73107,-1.48113 c 0.28715,-0.0909 0.60888,-0.19312 0.71497,-0.22716 l 0.1929,-0.0618 0.0695,0.0349 c 0.0382,0.0192 0.11138,0.053 0.16283,0.0753 0.0514,0.0223 0.1358,0.0544 0.18763,0.0716 0.0518,0.0172 0.13548,0.0419 0.18589,0.0546 0.0503,0.0132 0.14806,0.0327 0.21702,0.0442 0.0689,0.012 0.19422,0.0257 0.27836,0.0313 0.1132,0.008 0.19214,0.008 0.3036,3.8e-4 0.0828,-0.006 0.18859,-0.0155 0.23498,-0.0225 0.0464,-0.007 0.12349,-0.0208 0.17144,-0.0309 0.0478,-0.0103 0.13541,-0.0325 0.19453,-0.0498 0.0591,-0.0173 0.15354,-0.0499 0.20979,-0.0722 0.0563,-0.0223 0.15029,-0.0646 0.20899,-0.0938 0.0587,-0.0294 0.12468,-0.0637 0.14674,-0.0762 0.022,-0.012 0.0811,-0.0501 0.13118,-0.0836 0.0501,-0.0334 0.12455,-0.0866 0.1654,-0.11806 0.0408,-0.0316 0.11195,-0.0917 0.15787,-0.13353 0.046,-0.0419 0.11699,-0.1132 0.15795,-0.15825 0.0409,-0.0452 0.10249,-0.11805 0.13698,-0.16207 0.0344,-0.044 0.0861,-0.11567 0.115,-0.1593 0.0287,-0.0436 0.0746,-0.11899 0.10193,-0.16759 0.0273,-0.0486 0.0712,-0.13587 0.0975,-0.19399 0.0263,-0.0582 0.068,-0.16537 0.0922,-0.2383 0.0244,-0.073 0.0561,-0.18611 0.0706,-0.25146 0.0146,-0.0654 0.0334,-0.16685 0.042,-0.22554 0.012,-0.0776 0.0156,-0.16032 0.0154,-0.30237 -1.9e-4,-0.10763 -0.006,-0.23969 -0.0103,-0.29349 -0.006,-0.0538 -0.0189,-0.14186 -0.0287,-0.19566 -0.009,-0.0538 -0.0277,-0.1364 -0.0396,-0.18355 -0.012,-0.0472 -0.0371,-0.13157 -0.0561,-0.18755 -0.0191,-0.056 -0.0514,-0.1415 -0.072,-0.18998 -0.0205,-0.0485 -0.0597,-0.13012 -0.0869,-0.18152 -0.0272,-0.0514 -0.0828,-0.14405 -0.1235,-0.20599 -0.0407,-0.0618 -0.1066,-0.15398 -0.14646,-0.20455 -0.0399,-0.0506 -0.12972,-0.14863 -0.1999,-0.21793 -0.0776,-0.0768 -0.17781,-0.16373 -0.25599,-0.22234 -0.0706,-0.053 -0.17013,-0.12137 -0.22098,-0.15182 -0.0509,-0.0305 -0.13428,-0.0768 -0.18543,-0.1025 -0.0511,-0.026 -0.14641,-0.0682 -0.21171,-0.094 -0.0654,-0.0257 -0.16537,-0.0601 -0.22234,-0.0766 -0.057,-0.0163 -0.14361,-0.0379 -0.19254,-0.048 -0.0489,-0.0102 -0.13496,-0.0253 -0.1912,-0.0342 -0.081,-0.0132 -0.1552,-0.0159 -0.35574,-0.0156 -0.21634,2.2e-4 -0.2717,0.002 -0.37797,0.0197 -0.0685,0.0103 -0.18054,0.0334 -0.24901,0.0503 -0.0685,0.017 -0.16454,0.0445 -0.21345,0.0612 -0.0489,0.0167 -0.12892,0.0471 -0.17787,0.0675 -0.0489,0.0204 -0.13368,0.0607 -0.18837,0.0894 -0.0548,0.0287 -0.13819,0.0765 -0.18554,0.10625 -0.0473,0.0298 -0.13197,0.0887 -0.18818,0.13118 -0.0561,0.0424 -0.15444,0.12746 -0.21842,0.18895 -0.064,0.0615 -0.15641,0.15989 -0.20539,0.21859 -0.049,0.0587 -0.1219,0.15674 -0.16218,0.2179 -0.0403,0.061 -0.0937,0.14918 -0.11899,0.19565 -0.0252,0.0465 -0.0622,0.12043 -0.082,0.16453 -0.0198,0.044 -0.0514,0.12084 -0.0699,0.17064 -0.0186,0.0498 -0.046,0.13387 -0.0609,0.18677 -0.015,0.0528 -0.035,0.13461 -0.0446,0.18164 -0.009,0.047 -0.0245,0.13506 -0.033,0.19564 -0.012,0.0811 -0.0154,0.16893 -0.0153,0.33252 1.3e-4,0.18442 0.003,0.24432 0.0198,0.35129 0.0102,0.0708 0.0313,0.17698 0.0452,0.23568 0.014,0.0587 0.0413,0.15474 0.0608,0.21344 0.0194,0.0587 0.0541,0.15075 0.0771,0.20454 0.0229,0.0538 0.0659,0.14386 0.0954,0.2001 0.0295,0.0563 0.0567,0.10557 0.0606,0.10967 0.003,0.003 -0.0243,0.10022 -0.0624,0.21344 -0.0382,0.11331 -0.14359,0.42506 -0.23439,0.69286 -0.0908,0.26779 -0.16306,0.48691 -0.16056,0.48691 0.002,0 0.23947,-0.0744 0.5266,-0.16526 z m 1.96725,-0.39216 c -0.0171,-0.001 -0.0731,-0.009 -0.12456,-0.017 -0.0514,-0.008 -0.14342,-0.0259 -0.20455,-0.0407 -0.061,-0.0148 -0.1612,-0.0453 -0.22233,-0.0679 -0.061,-0.0226 -0.15519,-0.0625 -0.20901,-0.089 -0.0538,-0.0265 -0.13064,-0.0679 -0.17086,-0.0921 l -0.073,-0.044 -0.4101,0.13011 c -0.22555,0.0715 -0.41178,0.12853 -0.41385,0.12641 -0.002,-0.002 0.0557,-0.18154 0.12826,-0.39883 l 0.13197,-0.39509 -0.0479,-0.0712 c -0.0263,-0.0391 -0.0696,-0.10922 -0.0961,-0.15558 -0.0265,-0.0465 -0.0663,-0.12561 -0.0886,-0.176 -0.0223,-0.0503 -0.0567,-0.14037 -0.0764,-0.2001 -0.0197,-0.0598 -0.0476,-0.16662 -0.0617,-0.23754 -0.0141,-0.0708 -0.0301,-0.1704 -0.0351,-0.22105 -0.006,-0.0507 -0.009,-0.14271 -0.009,-0.20455 0,-0.0618 0.008,-0.17447 0.0178,-0.2503 0.009,-0.0757 0.0275,-0.17987 0.0392,-0.23124 0.012,-0.0514 0.0359,-0.13794 0.0535,-0.1924 0.0177,-0.0544 0.0502,-0.14048 0.0724,-0.19114 0.0221,-0.0508 0.0567,-0.12216 0.0768,-0.15889 0.02,-0.0367 0.0583,-0.10079 0.0852,-0.14236 0.0269,-0.0416 0.0751,-0.10956 0.10705,-0.15118 0.0319,-0.0416 0.0885,-0.10922 0.12561,-0.15012 0.0371,-0.041 0.11343,-0.11434 0.1697,-0.16297 0.0564,-0.0486 0.15605,-0.12454 0.22175,-0.1687 0.0657,-0.0441 0.17978,-0.10967 0.25348,-0.14565 0.0737,-0.0361 0.19418,-0.0854 0.26779,-0.1099 0.0736,-0.0245 0.18365,-0.0544 0.24456,-0.0667 0.0609,-0.0119 0.14877,-0.0272 0.19525,-0.0331 0.0465,-0.006 0.16251,-0.0102 0.25791,-0.0102 0.10363,3.8e-4 0.2129,0.007 0.27155,0.0144 0.0539,0.008 0.14601,0.0243 0.20454,0.0374 0.0585,0.0132 0.15246,0.0391 0.2087,0.0579 0.0564,0.0188 0.14632,0.0539 0.20015,0.0779 0.0538,0.024 0.13184,0.063 0.17343,0.0864 0.0416,0.0235 0.10967,0.0657 0.15145,0.0937 0.0418,0.0279 0.10773,0.0761 0.14674,0.10683 0.0389,0.0307 0.11218,0.0962 0.16296,0.14557 0.0507,0.0493 0.12508,0.12971 0.16539,0.17865 0.0403,0.0489 0.10079,0.13091 0.13458,0.18232 0.0337,0.0514 0.0895,0.14941 0.12402,0.21789 0.0345,0.0684 0.0772,0.16453 0.0953,0.21343 0.0179,0.0489 0.0429,0.12495 0.0556,0.16898 0.0132,0.044 0.0337,0.13408 0.0465,0.20011 0.0216,0.11013 0.0236,0.13911 0.0241,0.35128 4.9e-4,0.18222 -0.002,0.25292 -0.0155,0.33351 -0.009,0.0563 -0.0256,0.1423 -0.0371,0.1912 -0.0119,0.0489 -0.0356,0.13297 -0.0536,0.18678 -0.018,0.0538 -0.0535,0.14384 -0.0789,0.2001 -0.0254,0.0563 -0.0696,0.14229 -0.0978,0.19121 -0.0284,0.0489 -0.0842,0.13455 -0.12402,0.19033 -0.0399,0.0558 -0.12641,0.15718 -0.19214,0.22534 -0.0657,0.0681 -0.15181,0.14992 -0.19121,0.18168 -0.0394,0.0318 -0.12163,0.091 -0.18278,0.1317 -0.0612,0.0407 -0.15919,0.0981 -0.21789,0.12746 -0.0587,0.0294 -0.13675,0.0654 -0.17342,0.0799 -0.0367,0.0145 -0.10466,0.0384 -0.15119,0.0533 -0.0465,0.0148 -0.13078,0.0372 -0.18735,0.0498 -0.0566,0.0132 -0.1546,0.029 -0.21784,0.0364 -0.0671,0.008 -0.17807,0.0132 -0.26622,0.012 -0.0832,-7.9e-4 -0.16525,-0.002 -0.18237,-0.003 z m 1.0243,-0.97743 c 0.0449,-0.008 0.10147,-0.022 0.12587,-0.0316 0.0244,-0.009 0.0706,-0.033 0.10295,-0.052 0.0322,-0.0191 0.0793,-0.0519 0.10443,-0.073 0.0252,-0.0211 0.0562,-0.051 0.069,-0.0665 0.0132,-0.0155 0.033,-0.0501 0.0449,-0.0768 0.012,-0.0268 0.0277,-0.0789 0.0354,-0.11594 0.008,-0.0371 0.0139,-0.0939 0.0139,-0.12601 0,-0.0508 -0.002,-0.0614 -0.0217,-0.0787 -0.012,-0.0103 -0.0789,-0.0488 -0.14896,-0.0836 -0.0699,-0.0349 -0.18724,-0.0919 -0.26061,-0.12692 -0.10079,-0.0481 -0.14591,-0.0648 -0.18468,-0.0685 -0.0422,-0.003 -0.0546,-10e-4 -0.0699,0.012 -0.0103,0.009 -0.046,0.0568 -0.0794,0.10568 -0.0334,0.0489 -0.0779,0.10558 -0.099,0.12587 -0.0211,0.0203 -0.0543,0.0453 -0.0738,0.0557 -0.0195,0.0102 -0.0454,0.0186 -0.0577,0.0185 -0.012,-9e-5 -0.0704,-0.0212 -0.12905,-0.0469 -0.0587,-0.0257 -0.14143,-0.0679 -0.18387,-0.0934 -0.0424,-0.0257 -0.10648,-0.0691 -0.14229,-0.0967 -0.0358,-0.0276 -0.0908,-0.0724 -0.12204,-0.0999 -0.0313,-0.0273 -0.0947,-0.0939 -0.14102,-0.14756 -0.0462,-0.0538 -0.11173,-0.13905 -0.14543,-0.18946 -0.0465,-0.0696 -0.0614,-0.0991 -0.0614,-0.12256 0,-0.0171 0.008,-0.0461 0.0171,-0.0644 0.009,-0.0185 0.0437,-0.0651 0.0763,-0.10409 0.0326,-0.0388 0.0708,-0.0908 0.0851,-0.11515 0.0144,-0.0245 0.026,-0.0562 0.026,-0.0706 4e-5,-0.0145 -0.0464,-0.13844 -0.10319,-0.27569 -0.0568,-0.13725 -0.11297,-0.26871 -0.1248,-0.29212 -0.012,-0.0235 -0.0343,-0.0508 -0.0501,-0.0607 -0.025,-0.0159 -0.0379,-0.0173 -0.10545,-0.0132 -0.0423,0.002 -0.1,0.012 -0.12826,0.0187 -0.0283,0.008 -0.0756,0.0262 -0.10535,0.042 -0.0297,0.0157 -0.0762,0.0511 -0.10352,0.0787 -0.0271,0.0276 -0.0618,0.0736 -0.077,0.10227 -0.0153,0.0287 -0.0358,0.0789 -0.0459,0.11172 -0.0103,0.0327 -0.0229,0.10204 -0.0287,0.15393 -0.008,0.0736 -0.008,0.11138 1.1e-4,0.17117 0.006,0.0421 0.0229,0.11502 0.0378,0.1618 0.0148,0.0468 0.0449,0.12257 0.0667,0.16844 0.0219,0.0459 0.0819,0.14569 0.13331,0.22185 0.0514,0.0762 0.11195,0.16271 0.13448,0.19232 0.0225,0.0295 0.0698,0.0878 0.10489,0.12946 0.0352,0.0416 0.0974,0.1099 0.13828,0.15186 0.0408,0.042 0.0996,0.0991 0.13051,0.12694 0.031,0.0278 0.0833,0.0722 0.11621,0.0984 0.033,0.0262 0.10364,0.0768 0.15716,0.11195 0.0535,0.0352 0.14128,0.0856 0.19507,0.11184 0.0538,0.0262 0.16263,0.0718 0.24182,0.10113 0.0793,0.0294 0.19125,0.0673 0.24901,0.0842 0.0577,0.017 0.1231,0.0346 0.14505,0.0394 0.022,0.006 0.0671,0.009 0.1,0.009 0.033,5.3e-4 0.0967,-0.006 0.14163,-0.0132 z"
       id="path706" /></g></svg>
